<svg width="1019" height="1154" viewBox="0 0 1019 1154" fill="none" xmlns="http://www.w3.org/2000/svg">
<path d="M484.167 635.185C416.502 593.529 337.568 570.339 316.037 523.118C294.385 476.83 330.137 406.511 359.028 346.334C387.92 286.157 408.846 236.098 433.684 173.029C458.523 109.96 484.942 34.7662 541.232 2.29453C597.521 -30.1771 682.698 -20.8829 766.152 -15.3664C849.728 -10.7825 932.807 -10.8855 1004.99 13.0964C1078.4 36.1692 1141.91 84.2831 1182.72 145.008C1223.41 206.665 1242.52 280.957 1213.26 343.932C1182.9 406.884 1105.28 458.542 1049.76 519.088C993.256 578.677 958.852 647.154 898.286 695.434C836.615 743.691 750.008 770.841 677.954 754.344C607.004 737.871 550.607 677.75 484.167 635.185Z" fill="#9E9E9E" fill-opacity="0.14"/>
</svg>
