<svg width="100" height="100" viewBox="0 0 100 100" fill="none" xmlns="http://www.w3.org/2000/svg">
<circle cx="50" cy="50" r="50" fill="#FEE2B9"/>
<path d="M33.7492 49.1804H35.6084V50.4445H33.7492V49.1804Z" fill="white"/>
<path opacity="0.18" d="M22.9856 74.9377C22.5247 75.0859 21.9505 75.4679 22.1136 75.9629C22.191 76.1998 22.4178 76.3318 22.628 76.4356C24.4014 77.3053 26.3382 77.703 28.2794 77.5959C27.0589 77.7612 25.9197 78.3526 25.031 79.2823C27.8065 79.9456 30.6732 79.9647 33.5113 79.9768C40.7313 80.0057 47.9518 80.0077 55.173 79.9829C59.6316 79.9668 64.0921 79.9405 68.547 79.7309C71.5639 79.5887 74.6095 79.3559 77.4974 78.3902C78.6312 78.0122 79.9152 77.2693 80 75.9709L77.2531 75.0808C77.0743 75.0224 76.8724 74.9427 76.8033 74.7522C76.6742 74.3994 77.1075 74.093 77.1471 73.715C77.1987 73.2109 76.594 72.9801 76.1396 72.9337C70.8155 72.3934 65.4581 73.0033 60.1146 73.2361C53.4889 73.5184 46.8568 73.213 40.243 72.7624C34.3262 72.3582 28.7292 73.095 22.9856 74.9377Z" fill="white"/>
<path d="M44.5681 32.1518C44.3837 33.933 45.017 35.8291 44.3837 37.4802C44.2178 37.9117 43.9975 38.4882 44.3321 38.7755C44.4464 38.861 44.5808 38.9087 44.7192 38.9126C45.0136 38.9396 45.3099 38.8991 45.5892 38.7935C45.8684 38.688 46.1243 38.5198 46.3406 38.2997C46.3766 38.5578 46.6347 38.7201 46.8743 38.7261C47.114 38.7322 47.3417 38.6253 47.5694 38.5457C48.7391 38.1334 50.0056 38.3764 51.2186 38.5891C51.7809 38.6899 52.4068 38.7644 52.8778 38.4116C53.3477 38.647 53.8592 38.7659 54.376 38.76C54.8927 38.7541 55.4019 38.6234 55.8671 38.3774C55.7363 37.8139 55.2597 37.4268 55.0376 36.8986C54.8698 36.4954 54.8596 36.0387 54.8532 35.5972C54.8384 34.7155 54.824 33.8335 54.8099 32.9511C54.7924 31.9028 54.7629 30.8051 54.2918 29.8928C53.8761 29.0864 53.3258 26.7578 49.7521 26.7578C45.6668 26.7538 44.71 30.7738 44.5681 32.1518Z" fill="#545454"/>
<path d="M46.3047 34.4721C46.4172 34.959 46.7813 35.342 47.197 35.5578C47.6127 35.7735 48.0764 35.844 48.5336 35.8904C49.813 36.0205 51.1578 35.963 52.299 35.3158C52.7396 35.0658 53.1903 34.5981 53.0797 34.0679C53.0692 34 53.0436 33.9359 53.0052 33.8812C52.9668 33.8266 52.9168 33.783 52.8594 33.7544C52.7827 33.7303 52.7019 33.7261 52.6235 33.7423C51.3671 33.8875 50.1052 34.076 48.8377 34.0256C48.2404 34.0014 47.5869 33.957 47.0172 33.7403C46.8006 33.6576 46.7149 33.5226 46.4881 33.6899C46.2614 33.8572 46.2448 34.2131 46.3047 34.4721Z" fill="url(#paint0_linear_179_6)"/>
<path d="M46.2973 30.1094C46.0972 30.2892 45.9587 30.538 45.9046 30.815C45.8523 31.0904 45.8389 31.3729 45.865 31.6527C45.875 31.9247 45.9212 32.1936 46.0023 32.451C46.1061 32.7199 46.2412 32.973 46.4042 33.204C46.5351 33.4056 46.6675 33.6072 46.8015 33.8088C46.9029 33.4873 47.0955 33.204 47.2016 32.8885C47.2682 32.6498 47.3211 32.4067 47.3601 32.1607C47.4458 31.7454 47.5933 31.3432 47.6366 30.9188C47.6634 30.6457 47.7141 29.9521 47.3914 29.8755C47.0476 29.7929 46.5766 29.8785 46.2973 30.1094Z" fill="#545454"/>
<path d="M74.6371 55.8606L73.7071 63.7373L73.4849 65.5921L72.5088 73.8065C72.5085 74.3229 72.3208 74.818 71.9868 75.183C71.6529 75.548 71.2001 75.753 70.7279 75.753H32.7122C32.241 75.7514 31.7896 75.5457 31.4568 75.1809C31.1241 74.816 30.9371 74.3218 30.9368 73.8065L30.0151 65.5911L29.8067 63.7373L28.9089 55.8606C28.9089 55.6046 28.9551 55.3511 29.0448 55.1146C29.1344 54.8781 29.2659 54.6633 29.4315 54.4824C29.5972 54.3016 29.7938 54.1582 30.0102 54.0605C30.2266 53.9628 30.4585 53.9127 30.6926 53.9131H72.8572C73.3294 53.9134 73.7821 54.1187 74.1159 54.4839C74.4496 54.8491 74.6371 55.3443 74.6371 55.8606Z" fill="white"/>
<path d="M74.6371 55.8606L73.7071 63.7373L73.4849 65.5921L72.5088 73.8065C72.5085 74.3229 72.3208 74.818 71.9868 75.183C71.6529 75.548 71.2001 75.753 70.7279 75.753H32.7122C32.241 75.7514 31.7896 75.5457 31.4568 75.1809C31.1241 74.816 30.9371 74.3218 30.9368 73.8065L30.0151 65.5911L29.8067 63.7373L28.9089 55.8606C28.9089 55.6046 28.9551 55.3511 29.0448 55.1146C29.1344 54.8781 29.2659 54.6633 29.4315 54.4824C29.5972 54.3016 29.7938 54.1582 30.0102 54.0605C30.2266 53.9628 30.4585 53.9127 30.6926 53.9131H72.8572C73.3294 53.9134 73.7821 54.1187 74.1159 54.4839C74.4496 54.8491 74.6371 55.3443 74.6371 55.8606Z" fill="url(#paint1_linear_179_6)"/>
<path d="M74.6372 55.8606L73.7071 63.7373L73.4849 65.5921L72.5088 73.8065C72.5085 74.3229 72.3208 74.818 71.9869 75.183C71.6529 75.548 71.2001 75.753 70.7279 75.753H38.735C38.2641 75.7509 37.8131 75.545 37.4806 75.1802C37.148 74.8154 36.9611 74.3216 36.9606 73.8065L36.0389 65.5911L35.8278 63.7373L34.942 55.8606C34.942 55.3443 35.1295 54.8491 35.4632 54.4839C35.797 54.1187 36.2497 53.9134 36.7219 53.9131H72.8554C73.0893 53.913 73.321 53.9632 73.5372 54.061C73.7533 54.1589 73.9498 54.3023 74.1152 54.4831C74.2807 54.664 74.412 54.8787 74.5015 55.1151C74.5911 55.3514 74.6372 55.6048 74.6372 55.8606Z" fill="white"/>
<path d="M73.7043 63.7363L73.4849 65.5921H30.0059L29.7985 63.7363H73.7043Z" fill="url(#paint2_linear_179_6)"/>
<path d="M37.8824 52.774V53.913H31.8226V52.774C31.8221 52.1563 32.046 51.5637 32.4449 51.1265C32.8439 50.6892 33.3853 50.4432 33.9501 50.4424H35.754C36.3187 50.4424 36.8603 50.6877 37.2596 51.1244C37.659 51.5611 37.8833 52.1534 37.8833 52.7709L37.8824 52.774Z" fill="white"/>
<path d="M37.8824 52.7738V53.9129H32.6587C32.6587 53.9129 32.5785 53.176 32.7712 52.037C32.9638 50.8979 34.246 50.4443 34.246 50.4443V49.1792H35.6111V50.4423H35.7623C36.3258 50.4452 36.8653 50.6922 37.2627 51.1292C37.6601 51.5662 37.8829 52.1576 37.8824 52.7738Z" fill="url(#paint3_linear_179_6)"/>
<path d="M37.9644 48.6934V49.6742L37.4519 49.4837L36.5384 49.143V48.7579H32.6587V49.142L31.9886 49.392L31.2327 49.6722V48.6914C31.2327 48.2765 31.3834 47.8786 31.6517 47.5852C31.92 47.2918 32.2839 47.127 32.6633 47.127H36.5348C36.9142 47.127 37.2781 47.2918 37.5463 47.5852C37.8146 47.8786 37.9654 48.2765 37.9654 48.6914L37.9644 48.6934Z" fill="white"/>
<path d="M37.4519 49.2823V49.4839L36.5385 49.1432V48.7581H32.6587V49.1422L31.9886 49.3922V49.2823C31.9886 48.9457 32.1109 48.6229 32.3285 48.3849C32.5461 48.1469 32.8413 48.0132 33.1491 48.0132H36.2905C36.5983 48.0132 36.8935 48.1469 37.1111 48.3849C37.3287 48.6229 37.451 48.9457 37.451 49.2823H37.4519Z" fill="url(#paint4_linear_179_6)"/>
<path d="M32.6587 49.144V49.39L31.2318 49.9001V49.6743L32.6587 49.144Z" fill="url(#paint5_linear_179_6)"/>
<path d="M33.326 49.4234C33.326 49.5014 33.3039 49.5774 33.2628 49.6411C33.2217 49.7048 33.1636 49.7531 33.0965 49.7792L31.1267 50.5564C31.0838 50.5733 31.0383 50.5807 30.9929 50.5783C30.9474 50.5759 30.9028 50.5637 30.8616 50.5425C30.8204 50.5212 30.7835 50.4913 30.7529 50.4544C30.7223 50.4176 30.6986 50.3745 30.6833 50.3276V50.3226L30.6722 50.2833C30.6426 50.1888 30.6484 50.0852 30.6885 49.9955C30.7286 49.9057 30.7997 49.837 30.8861 49.8044L31.2327 49.6754L32.6586 49.1452L32.8688 49.0666C32.9545 49.0351 33.0481 49.0415 33.1296 49.0845C33.211 49.1274 33.2739 49.2035 33.3048 49.2964C33.3188 49.337 33.3259 49.38 33.326 49.4234Z" fill="white"/>
<path d="M37.9654 49.6743V49.9001L36.5366 49.39V49.144L37.9654 49.6743Z" fill="url(#paint6_linear_179_6)"/>
<path d="M38.5277 50.2832L38.5148 50.3225C38.5003 50.3695 38.4775 50.4128 38.4478 50.4501C38.418 50.4874 38.3818 50.518 38.3412 50.54C38.3006 50.562 38.2565 50.575 38.2113 50.5783C38.1661 50.5817 38.1208 50.5752 38.0778 50.5594H38.0668L36.0951 49.7822C36.0281 49.7561 35.9702 49.7078 35.9294 49.644C35.8886 49.5803 35.8669 49.5042 35.8674 49.4264C35.8677 49.3828 35.8746 49.3395 35.8877 49.2984C35.9192 49.2057 35.9823 49.1299 36.0638 49.0871C36.1453 49.0442 36.2388 49.0376 36.3246 49.0685L36.5339 49.1462L37.9599 49.6774L38.3074 49.8064C38.3503 49.8222 38.3899 49.8471 38.4241 49.8797C38.4582 49.9123 38.4861 49.9519 38.5062 49.9962C38.5263 50.0406 38.5382 50.0889 38.5413 50.1383C38.5443 50.1877 38.5385 50.2373 38.524 50.2842L38.5277 50.2832Z" fill="white"/>
<path d="M35.8223 52.1117H33.7492C33.6758 52.1117 33.6055 52.0799 33.5537 52.0232C33.5018 51.9664 33.4727 51.8895 33.4727 51.8093L33.8248 50.9545C33.8248 50.8743 33.8539 50.7974 33.9058 50.7407C33.9576 50.684 34.028 50.6521 34.1013 50.6521H35.3319C35.4052 50.6521 35.4755 50.684 35.5274 50.7407C35.5793 50.7974 35.6084 50.8743 35.6084 50.9545L36.0969 51.8093C36.0969 51.8892 36.0681 51.9658 36.0166 52.0224C35.9651 52.0791 35.8953 52.1112 35.8223 52.1117Z" fill="white"/>
<path d="M34.3473 51.0251H34.1427C34.1183 51.0251 34.0948 51.0145 34.0775 50.9956C34.0602 50.9767 34.0505 50.951 34.0505 50.9243C34.0505 50.8976 34.0602 50.8719 34.0775 50.853C34.0948 50.8341 34.1183 50.8235 34.1427 50.8235H34.3473C34.3718 50.8235 34.3952 50.8341 34.4125 50.853C34.4298 50.8719 34.4395 50.8976 34.4395 50.9243C34.4395 50.951 34.4298 50.9767 34.4125 50.9956C34.3952 51.0145 34.3718 51.0251 34.3473 51.0251Z" fill="url(#paint7_linear_179_6)"/>
<path d="M34.8554 51.0251H34.6563C34.6318 51.0251 34.6084 51.0145 34.5911 50.9956C34.5738 50.9767 34.5641 50.951 34.5641 50.9243C34.5641 50.8976 34.5738 50.8719 34.5911 50.853C34.6084 50.8341 34.6318 50.8235 34.6563 50.8235H34.8609C34.8853 50.8235 34.9088 50.8341 34.9261 50.853C34.9434 50.8719 34.9531 50.8976 34.9531 50.9243C34.9531 50.951 34.9434 50.9767 34.9261 50.9956C34.9088 51.0145 34.8853 51.0251 34.8609 51.0251H34.8554Z" fill="url(#paint8_linear_179_6)"/>
<path d="M35.3614 51.0251H35.1568C35.1323 51.0251 35.1089 51.0145 35.0916 50.9956C35.0743 50.9767 35.0646 50.951 35.0646 50.9243C35.0646 50.8976 35.0743 50.8719 35.0916 50.853C35.1089 50.8341 35.1323 50.8235 35.1568 50.8235H35.3614C35.3858 50.8235 35.4093 50.8341 35.4266 50.853C35.4439 50.8719 35.4536 50.8976 35.4536 50.9243C35.4536 50.951 35.4439 50.9767 35.4266 50.9956C35.4093 51.0145 35.3858 51.0251 35.3614 51.0251Z" fill="url(#paint9_linear_179_6)"/>
<path d="M34.3473 51.3273H34.1427C34.1183 51.3273 34.0948 51.3167 34.0775 51.2978C34.0602 51.2789 34.0505 51.2533 34.0505 51.2265C34.0505 51.1998 34.0602 51.1742 34.0775 51.1553C34.0948 51.1364 34.1183 51.1257 34.1427 51.1257H34.3473C34.3718 51.1257 34.3952 51.1364 34.4125 51.1553C34.4298 51.1742 34.4395 51.1998 34.4395 51.2265C34.4395 51.2533 34.4298 51.2789 34.4125 51.2978C34.3952 51.3167 34.3718 51.3273 34.3473 51.3273Z" fill="url(#paint10_linear_179_6)"/>
<path d="M34.8554 51.3273H34.6563C34.6318 51.3273 34.6084 51.3167 34.5911 51.2978C34.5738 51.2789 34.5641 51.2533 34.5641 51.2265C34.5641 51.1998 34.5738 51.1742 34.5911 51.1553C34.6084 51.1364 34.6318 51.1257 34.6563 51.1257H34.8609C34.8853 51.1257 34.9088 51.1364 34.9261 51.1553C34.9434 51.1742 34.9531 51.1998 34.9531 51.2265C34.9531 51.2533 34.9434 51.2789 34.9261 51.2978C34.9088 51.3167 34.8853 51.3273 34.8609 51.3273H34.8554Z" fill="url(#paint11_linear_179_6)"/>
<path d="M35.3614 51.3273H35.1568C35.1323 51.3273 35.1089 51.3167 35.0916 51.2978C35.0743 51.2789 35.0646 51.2533 35.0646 51.2265C35.0646 51.1998 35.0743 51.1742 35.0916 51.1553C35.1089 51.1364 35.1323 51.1257 35.1568 51.1257H35.3614C35.3858 51.1257 35.4093 51.1364 35.4266 51.1553C35.4439 51.1742 35.4536 51.1998 35.4536 51.2265C35.4536 51.2533 35.4439 51.2789 35.4266 51.2978C35.4093 51.3167 35.3858 51.3273 35.3614 51.3273Z" fill="url(#paint12_linear_179_6)"/>
<path d="M34.3473 51.6913H34.1427C34.1183 51.6913 34.0948 51.6807 34.0775 51.6618C34.0602 51.6429 34.0505 51.6172 34.0505 51.5905C34.0517 51.5647 34.062 51.5403 34.0791 51.5225C34.0963 51.5046 34.119 51.4947 34.1427 51.4948H34.3473C34.371 51.4947 34.3938 51.5046 34.411 51.5225C34.4281 51.5403 34.4383 51.5647 34.4395 51.5905C34.4395 51.6172 34.4298 51.6429 34.4125 51.6618C34.3952 51.6807 34.3718 51.6913 34.3473 51.6913Z" fill="url(#paint13_linear_179_6)"/>
<path d="M34.8554 51.6913H34.6563C34.6318 51.6913 34.6084 51.6807 34.5911 51.6618C34.5738 51.6429 34.5641 51.6172 34.5641 51.5905C34.5653 51.5647 34.5755 51.5403 34.5927 51.5225C34.6098 51.5046 34.6326 51.4947 34.6563 51.4948H34.8609C34.8846 51.4947 34.9073 51.5046 34.9245 51.5225C34.9417 51.5403 34.9519 51.5647 34.9531 51.5905C34.9531 51.6172 34.9434 51.6429 34.9261 51.6618C34.9088 51.6807 34.8853 51.6913 34.8609 51.6913H34.8554Z" fill="url(#paint14_linear_179_6)"/>
<path d="M35.3614 51.6913H35.1568C35.1323 51.6913 35.1089 51.6807 35.0916 51.6618C35.0743 51.6429 35.0646 51.6172 35.0646 51.5905C35.0658 51.5647 35.076 51.5403 35.0932 51.5225C35.1103 51.5046 35.1331 51.4947 35.1568 51.4948H35.3614C35.3851 51.4947 35.4078 51.5046 35.425 51.5225C35.4421 51.5403 35.4524 51.5647 35.4536 51.5905C35.4536 51.6172 35.4439 51.6429 35.4266 51.6618C35.4093 51.6807 35.3858 51.6913 35.3614 51.6913Z" fill="url(#paint15_linear_179_6)"/>
<path d="M42.8904 53.914C42.5316 53.914 42.1776 53.8252 41.8547 53.6541C41.5318 53.4831 41.2486 53.2343 41.0262 52.9264C40.8039 52.6186 40.6482 52.2596 40.5708 51.8765C40.4934 51.4934 40.4964 51.0962 40.5795 50.7145L42.1078 43.6966C42.1078 43.6966 42.8157 40.2602 44.9478 39.8167L53.9913 39.7865C53.9913 39.7865 55.7196 39.6091 56.8092 42.5545C57.0756 43.2753 59.4731 46.9677 60.4041 46.5514L65.6582 43.9748C65.6582 43.9748 66.0748 43.4708 66.6039 44.0988C67.133 44.7268 68.4281 45.6633 66.3633 47.1824C63.6902 49.1501 59.7763 50.5804 59.7763 50.5804C59.7763 50.5804 59.0463 50.9443 58.1365 50.2166C57.2267 49.4888 56.2174 48.7479 56.2174 48.7479L54.6743 53.914H42.8904Z" fill="white"/>
<path d="M66.3652 47.1824C63.692 49.1501 59.7782 50.5804 59.7782 50.5804C59.7782 50.5804 59.0481 50.9443 58.1384 50.2166C57.2286 49.4888 56.2192 48.7479 56.2192 48.7479L54.6762 53.914H42.8904C42.5316 53.914 42.1776 53.8252 41.8547 53.6541C41.5318 53.4831 41.2486 53.2343 41.0262 52.9264C40.8039 52.6186 40.6482 52.2596 40.5708 51.8765C40.4934 51.4934 40.4964 51.0962 40.5795 50.7145L42.1078 43.6966C42.1078 43.6966 42.8157 40.2602 44.9478 39.8167L53.9913 39.7865C53.9913 39.7865 55.7196 39.6091 56.8092 42.5545C57.0756 43.2753 59.4731 46.9677 60.4041 46.5514L65.6582 43.9748C65.6582 43.9748 66.0748 43.4708 66.6039 44.0988C66.8528 44.3952 67.2722 44.7591 67.4335 45.2208C67.6077 45.7389 67.4556 46.379 66.3652 47.1824Z" fill="url(#paint16_linear_179_6)"/>
<path d="M51.167 51.6631C51.6004 51.5339 52.0449 51.4545 52.4934 51.4262C52.9423 51.4161 53.4059 51.5169 53.7737 51.7982C53.7553 51.8515 53.7228 51.8975 53.6802 51.9304C53.6377 51.9633 53.5871 51.9815 53.535 51.9826C53.9148 51.9978 54.2724 52.1631 54.6227 52.3244L55.62 52.7881C55.6489 52.799 55.6753 52.8165 55.6975 52.8395C55.7749 52.9322 55.6707 53.0834 55.5583 53.1137C55.4458 53.1439 55.3205 53.1207 55.2209 53.1852C55.2954 53.1653 55.3733 53.1674 55.4468 53.1911C55.5203 53.2148 55.5868 53.2594 55.6394 53.3203C54.961 53.8606 54.0604 53.8868 53.2216 53.8888C52.4196 53.8888 51.6177 53.8888 50.8167 53.8445C50.766 53.8498 50.7148 53.8436 50.6665 53.8263C50.6181 53.8089 50.5735 53.7808 50.5355 53.7437C50.4858 53.6528 50.47 53.5445 50.4913 53.4413C50.5319 53.0038 50.5531 52.5592 50.6139 52.1248C50.6627 51.7891 50.8388 51.6631 51.167 51.6631Z" fill="url(#paint17_linear_179_6)"/>
<path d="M65.978 43.9538L66.4131 43.6685C66.5505 43.5782 66.7134 43.546 66.8711 43.5777C67.0287 43.6094 67.1704 43.703 67.2694 43.8409C67.5395 44.2148 67.8419 44.7602 67.7967 45.2834C67.7165 46.2077 66.8749 46.2531 66.8749 46.2531C66.8749 46.2531 65.8038 45.1856 65.978 43.9538Z" fill="white"/>
<path d="M67.6022 43.3741L69.2466 42.4256C69.2472 42.5616 69.2113 42.6949 69.1433 42.8089C69.0753 42.9228 68.9782 43.0125 68.8641 43.0667C69.5232 42.9104 70.1997 42.7471 70.762 42.3389C70.8809 42.2522 71.0312 42.1514 71.1556 42.23C71.0776 42.4903 70.9406 42.7247 70.7574 42.9114L71.0339 42.6725C71.0717 42.7562 71.022 42.853 70.9722 42.9286C70.8174 43.1632 70.645 43.3834 70.4569 43.5868C70.5371 43.5345 70.629 43.5073 70.7224 43.5082C70.6625 43.6459 70.5916 43.7774 70.5104 43.9013C70.151 44.4469 69.6631 44.8757 69.0985 45.142C68.534 45.4082 67.9139 45.502 67.3045 45.4134C67.2288 45.4056 67.1553 45.3819 67.0878 45.3438C67.0135 45.2912 66.9531 45.2182 66.9127 45.1321C66.8242 44.958 66.7752 44.7632 66.7699 44.5641C66.7646 44.365 66.8031 44.1674 66.8823 43.988C67.0104 43.7088 67.3598 43.5163 67.6022 43.3741Z" fill="url(#paint18_linear_179_6)"/>
<path d="M47.6929 40.4105C48.1897 40.8591 48.7133 41.2855 49.3097 41.5536C49.906 41.8218 50.5845 41.9206 51.1975 41.7038C52.027 41.4105 52.5995 40.6101 53.1111 39.843C52.6133 39.7664 52.1745 39.4196 51.8722 38.9801C51.5698 38.5406 51.3901 38.0175 51.2546 37.4883C51.1772 37.1859 51.108 36.8663 50.9246 36.6234C50.7108 36.3421 50.3715 36.2061 50.0443 36.1476C49.7851 36.0882 49.5156 36.1131 49.2691 36.2192C48.7566 36.4742 48.5925 37.1596 48.3695 37.7251C48.1385 38.3077 47.7922 38.8268 47.3555 39.2453C47.1813 39.4126 46.8218 39.5598 46.925 39.8118C47.0006 39.9993 47.538 40.2704 47.6929 40.4105Z" fill="url(#paint19_linear_179_6)"/>
<path d="M48.3694 37.7251C48.3694 37.7251 48.7252 39.4519 50.0083 39.4256C51.2914 39.3994 51.391 37.9509 51.391 37.9509L48.3694 37.7251Z" fill="url(#paint20_linear_179_6)"/>
<path d="M47.6532 36.2976C47.9786 37.0456 48.3906 37.7552 48.9667 38.2129C52.2851 40.8711 53.1562 31.9923 53.0484 31.575C52.9129 31.0458 52.7718 30.5005 52.4704 30.0912C52.2362 29.7915 51.941 29.556 51.6085 29.4037C50.6754 28.9401 49.6189 28.8683 48.6404 29.2021C48.3263 29.2981 48.0319 29.4589 47.773 29.6759C47.3619 30.0378 47.0826 30.5992 46.925 31.1879C46.4475 32.958 46.9757 34.7463 47.6532 36.2976Z" fill="url(#paint21_linear_179_6)"/>
<path d="M49.6157 29.9392C50.6416 30.4724 50.861 32.1357 51.9081 32.6175C52.132 32.7125 52.3695 32.7633 52.6096 32.7677C52.9331 32.7816 53.2568 32.7477 53.5719 32.6669C53.4798 31.6024 53.7342 30.4916 53.4254 29.4765C53.1986 28.7305 52.6428 28.1721 52.0427 27.7457C51.662 27.4766 50.7633 27.278 49.9568 27.287C49.2823 27.2862 48.6273 27.5349 48.0985 27.9927C47.5832 28.4564 47.2606 29.2124 47.3924 29.9281C47.7989 29.8111 48.1713 29.8394 48.5815 29.8273C48.9511 29.8232 49.2571 29.7527 49.6157 29.9392Z" fill="#545454"/>
<path d="M45.6824 45.7612L44.5587 50.6542L48.6735 50.9274L45.6824 45.7612Z" fill="url(#paint22_linear_179_6)"/>
<path d="M50.1613 51.4001C50.3549 51.7146 50.4065 52.1138 50.3826 52.4928C50.3438 52.8705 50.2822 53.2449 50.1982 53.6137C50.1789 53.7145 50.1715 53.8446 50.2517 53.899C50.2897 53.9163 50.3316 53.9209 50.3719 53.9121C50.4123 53.9033 50.4494 53.8815 50.4784 53.8496C50.7716 53.6036 50.8416 53.1621 50.8914 52.7619C50.9273 52.4706 50.9596 52.1571 50.8416 51.8971C50.7402 51.6713 50.5439 51.518 50.3558 51.3739C50.1033 51.1814 49.8323 50.9707 49.5262 50.9011C49.7641 51.0473 50 51.138 50.1613 51.4001Z" fill="white"/>
<path d="M50.1613 51.4001C50.3549 51.7146 50.4065 52.1138 50.3826 52.4928C50.3438 52.8705 50.2822 53.2449 50.1982 53.6137C50.1789 53.7145 50.1715 53.8446 50.2517 53.899C50.2897 53.9163 50.3316 53.9209 50.3719 53.9121C50.4123 53.9033 50.4494 53.8815 50.4784 53.8496C50.7716 53.6036 50.8416 53.1621 50.8914 52.7619C50.9273 52.4706 50.9596 52.1571 50.8416 51.8971C50.7402 51.6713 50.5439 51.518 50.3558 51.3739C50.1033 51.1814 49.8323 50.9707 49.5262 50.9011C49.7641 51.0473 50 51.138 50.1613 51.4001Z" fill="url(#paint23_linear_179_6)"/>
<path d="M69.7444 33.2727C72.7683 33.2727 75.2197 30.592 75.2197 27.2851C75.2197 23.9781 72.7683 21.2974 69.7444 21.2974C66.7204 21.2974 64.269 23.9781 64.269 27.2851C64.269 30.592 66.7204 33.2727 69.7444 33.2727Z" fill="white"/>
<path d="M69.7444 31.7022C71.9752 31.7022 73.7836 29.7245 73.7836 27.285C73.7836 24.8454 71.9752 22.8678 69.7444 22.8678C67.5136 22.8678 65.7052 24.8454 65.7052 27.285C65.7052 29.7245 67.5136 31.7022 69.7444 31.7022Z" fill="white"/>
<path d="M72.1567 27.8706H69.5158C69.4577 27.8706 69.402 27.8455 69.3607 27.8008C69.3195 27.756 69.296 27.6953 69.2955 27.6317C69.2953 27.6001 69.3008 27.5687 69.3116 27.5394C69.3224 27.51 69.3385 27.4833 69.3588 27.4608C69.379 27.4382 69.4032 27.4203 69.4298 27.4079C69.4565 27.3956 69.4851 27.3891 69.514 27.3888H72.1567C72.2152 27.3888 72.2712 27.4142 72.3125 27.4594C72.3538 27.5045 72.377 27.5658 72.377 27.6297C72.3773 27.6933 72.3545 27.7543 72.3138 27.7997C72.2731 27.845 72.2176 27.8708 72.1595 27.8716L72.1567 27.8706Z" fill="#545454"/>
<path d="M69.736 24.7377V27.6308C69.7355 27.6942 69.7123 27.7549 69.6712 27.7998C69.6302 27.8447 69.5747 27.8701 69.5166 27.8707C69.4585 27.8707 69.4028 27.8456 69.3615 27.8008C69.3202 27.7561 69.2968 27.6953 69.2963 27.6318V24.7377C69.2966 24.674 69.3199 24.613 69.3612 24.568C69.4025 24.523 69.4584 24.4978 69.5166 24.4978C69.5747 24.4983 69.6302 24.5238 69.6712 24.5687C69.7123 24.6135 69.7355 24.6742 69.736 24.7377Z" fill="#545454"/>
<path d="M37.8271 33.7868H20V20H37.8271V33.7868ZM20.9393 32.7586H36.8859V21.0272H20.9393V32.7586Z" fill="white"/>
<path d="M33.2919 24.1168H34.7344V30.4603H33.2919V24.1168Z" fill="white"/>
<path d="M35.7455 27.5684H37.1881V30.4604H35.7455V27.5684Z" fill="white"/>
<path d="M29.1965 25.7499H30.6391V30.4604H29.1965V25.7499Z" fill="white"/>
<path d="M31.6494 24.1169H33.0919V30.4605H31.6494V24.1169Z" fill="white"/>
<path d="M23.6199 30.4604H34.0543V30.776H23.6199V30.4604Z" fill="white"/>
<path d="M66.3651 47.1827C63.692 49.1503 59.7782 50.5807 59.7782 50.5807C59.7782 50.5807 59.0481 50.9446 58.1383 50.2168C57.2285 49.489 56.2192 48.7481 56.2192 48.7481C56.2192 48.7481 56.5575 47.2835 55.6228 45.1454C55.6228 45.1454 58.2692 48.859 58.8416 49.0465C61.4456 49.8993 66.9145 45.1323 66.9145 45.1323L67.4326 45.221C67.6077 45.7392 67.4556 46.3793 66.3651 47.1827Z" fill="url(#paint24_linear_179_6)"/>
<path d="M46.1783 39.7847L47.3591 39.2454C47.3591 39.2454 49.8286 42.7231 51.2822 41.3985C52.7358 40.074 52.6833 39.4258 52.6833 39.4258L53.2714 39.8088C53.2714 39.8088 52.9773 42.1747 51.0223 42.2281C49.0672 42.2815 46.1783 39.7847 46.1783 39.7847Z" fill="white"/>
<path d="M46.1783 39.7847L47.3591 39.2454C47.3591 39.2454 49.8286 42.7231 51.2822 41.3985C52.7358 40.074 52.6833 39.4258 52.6833 39.4258L53.2714 39.8088C53.2714 39.8088 52.4971 42.4721 50.542 42.5305C48.5869 42.589 46.1783 39.7847 46.1783 39.7847Z" fill="url(#paint25_linear_179_6)"/>
<defs>
<linearGradient id="paint0_linear_179_6" x1="46.2752" y1="34.7786" x2="53.0963" y2="34.7786" gradientUnits="userSpaceOnUse">
<stop stop-color="#ECC4D7"/>
<stop offset="0.42" stop-color="#EFD4D1"/>
<stop offset="1" stop-color="#F2EAC9"/>
</linearGradient>
<linearGradient id="paint1_linear_179_6" x1="38.2032" y1="66.8814" x2="18.7206" y2="69.5495" gradientUnits="userSpaceOnUse">
<stop stop-opacity="0"/>
<stop offset="0.91" stop-opacity="0.8"/>
<stop offset="1"/>
</linearGradient>
<linearGradient id="paint2_linear_179_6" x1="51.5587" y1="60.5167" x2="52.365" y2="71.7468" gradientUnits="userSpaceOnUse">
<stop stop-opacity="0"/>
<stop offset="0.91" stop-opacity="0.8"/>
<stop offset="1"/>
</linearGradient>
<linearGradient id="paint3_linear_179_6" x1="35.1355" y1="56.3977" x2="35.5079" y2="49.5514" gradientUnits="userSpaceOnUse">
<stop/>
<stop offset="0.98" stop-opacity="0"/>
</linearGradient>
<linearGradient id="paint4_linear_179_6" x1="34.6184" y1="50.7752" x2="34.8827" y2="47.6913" gradientUnits="userSpaceOnUse">
<stop/>
<stop offset="0.98" stop-opacity="0"/>
</linearGradient>
<linearGradient id="paint5_linear_179_6" x1="31.9121" y1="48.5906" x2="31.9705" y2="49.9218" gradientUnits="userSpaceOnUse">
<stop stop-color="#68E1FD"/>
<stop offset="0.34" stop-color="#68D4F7"/>
<stop offset="1" stop-color="#69B9EB"/>
</linearGradient>
<linearGradient id="paint6_linear_179_6" x1="37.2095" y1="48.4183" x2="37.28" y2="49.9953" gradientUnits="userSpaceOnUse">
<stop stop-color="#68E1FD"/>
<stop offset="0.34" stop-color="#68D4F7"/>
<stop offset="1" stop-color="#69B9EB"/>
</linearGradient>
<linearGradient id="paint7_linear_179_6" x1="34.7354" y1="50.014" x2="32.9484" y2="52.7862" gradientUnits="userSpaceOnUse">
<stop/>
<stop offset="0.98" stop-opacity="0"/>
</linearGradient>
<linearGradient id="paint8_linear_179_6" x1="35.1162" y1="50.26" x2="33.3292" y2="53.0311" gradientUnits="userSpaceOnUse">
<stop/>
<stop offset="0.98" stop-opacity="0"/>
</linearGradient>
<linearGradient id="paint9_linear_179_6" x1="35.4886" y1="50.4989" x2="33.7016" y2="53.271" gradientUnits="userSpaceOnUse">
<stop/>
<stop offset="0.98" stop-opacity="0"/>
</linearGradient>
<linearGradient id="paint10_linear_179_6" x1="34.8562" y1="50.0915" x2="33.0701" y2="52.8638" gradientUnits="userSpaceOnUse">
<stop/>
<stop offset="0.98" stop-opacity="0"/>
</linearGradient>
<linearGradient id="paint11_linear_179_6" x1="35.237" y1="50.3385" x2="33.4499" y2="53.1106" gradientUnits="userSpaceOnUse">
<stop/>
<stop offset="0.98" stop-opacity="0"/>
</linearGradient>
<linearGradient id="paint12_linear_179_6" x1="35.6093" y1="50.5764" x2="33.8223" y2="53.3485" gradientUnits="userSpaceOnUse">
<stop/>
<stop offset="0.98" stop-opacity="0"/>
</linearGradient>
<linearGradient id="paint13_linear_179_6" x1="35.0027" y1="50.1863" x2="33.2157" y2="52.9585" gradientUnits="userSpaceOnUse">
<stop/>
<stop offset="0.98" stop-opacity="0"/>
</linearGradient>
<linearGradient id="paint14_linear_179_6" x1="35.3835" y1="50.4323" x2="33.5965" y2="53.2044" gradientUnits="userSpaceOnUse">
<stop/>
<stop offset="0.98" stop-opacity="0"/>
</linearGradient>
<linearGradient id="paint15_linear_179_6" x1="35.7559" y1="50.6722" x2="33.9689" y2="53.4433" gradientUnits="userSpaceOnUse">
<stop/>
<stop offset="0.98" stop-opacity="0"/>
</linearGradient>
<linearGradient id="paint16_linear_179_6" x1="53.8899" y1="46.1663" x2="54.8198" y2="61.8241" gradientUnits="userSpaceOnUse">
<stop stop-opacity="0"/>
<stop offset="0.91" stop-opacity="0.8"/>
<stop offset="1"/>
</linearGradient>
<linearGradient id="paint17_linear_179_6" x1="50.4821" y1="52.657" x2="55.7242" y2="52.657" gradientUnits="userSpaceOnUse">
<stop stop-color="#ECC4D7"/>
<stop offset="0.42" stop-color="#EFD4D1"/>
<stop offset="1" stop-color="#F2EAC9"/>
</linearGradient>
<linearGradient id="paint18_linear_179_6" x1="66.7698" y1="43.8237" x2="71.1556" y2="43.8237" gradientUnits="userSpaceOnUse">
<stop stop-color="#ECC4D7"/>
<stop offset="0.42" stop-color="#EFD4D1"/>
<stop offset="1" stop-color="#F2EAC9"/>
</linearGradient>
<linearGradient id="paint19_linear_179_6" x1="49.7512" y1="36.6708" x2="50.2872" y2="42.0954" gradientUnits="userSpaceOnUse">
<stop stop-color="#ECC4D7"/>
<stop offset="0.42" stop-color="#EFD4D1"/>
<stop offset="1" stop-color="#F2EAC9"/>
</linearGradient>
<linearGradient id="paint20_linear_179_6" x1="49.6525" y1="38.5396" x2="46.0009" y2="46.5818" gradientUnits="userSpaceOnUse">
<stop stop-color="#ECC4D7"/>
<stop offset="0.27" stop-color="#ECC6D6"/>
<stop offset="0.37" stop-color="#EECDD4"/>
<stop offset="0.42" stop-color="#EFD4D1"/>
<stop offset="1" stop-color="#F2EAC9"/>
</linearGradient>
<linearGradient id="paint21_linear_179_6" x1="49.7318" y1="32.4117" x2="52.8336" y2="38.1504" gradientUnits="userSpaceOnUse">
<stop stop-color="#ECC4D7"/>
<stop offset="0.42" stop-color="#EFD4D1"/>
<stop offset="1" stop-color="#F2EAC9"/>
</linearGradient>
<linearGradient id="paint22_linear_179_6" x1="46.9461" y1="48.5011" x2="41.2597" y2="51.6806" gradientUnits="userSpaceOnUse">
<stop stop-opacity="0"/>
<stop offset="0.91" stop-opacity="0.8"/>
<stop offset="1"/>
</linearGradient>
<linearGradient id="paint23_linear_179_6" x1="51.5855" y1="51.5795" x2="49.1941" y2="52.5943" gradientUnits="userSpaceOnUse">
<stop stop-opacity="0"/>
<stop offset="0.91" stop-opacity="0.8"/>
<stop offset="1"/>
</linearGradient>
<linearGradient id="paint24_linear_179_6" x1="62.7582" y1="47.3994" x2="33.176" y2="49.7903" gradientUnits="userSpaceOnUse">
<stop stop-opacity="0"/>
<stop offset="0.91" stop-opacity="0.8"/>
<stop offset="1"/>
</linearGradient>
<linearGradient id="paint25_linear_179_6" x1="49.7373" y1="39.2444" x2="49.5312" y2="46.3197" gradientUnits="userSpaceOnUse">
<stop stop-color="#0F0F0F" stop-opacity="0"/>
<stop offset="0.91" stop-opacity="0.8"/>
<stop offset="1" stop-color="#8E3A3A"/>
</linearGradient>
</defs>
</svg>
