<svg width="172" height="136" viewBox="0 0 172 136" fill="none" xmlns="http://www.w3.org/2000/svg">
<circle cx="5" cy="5" r="5" fill="#D9D9D9"/>
<circle cx="5" cy="103" r="5" fill="#D9D9D9"/>
<circle cx="5" cy="89" r="5" fill="#D9D9D9"/>
<circle cx="5" cy="75" r="5" fill="#D9D9D9"/>
<circle cx="5" cy="61" r="5" fill="#D9D9D9"/>
<circle cx="5" cy="47" r="5" fill="#D9D9D9"/>
<circle cx="5" cy="33" r="5" fill="#D9D9D9"/>
<circle cx="5" cy="19" r="5" fill="#D9D9D9"/>
<circle cx="5" cy="117" r="5" fill="#D9D9D9"/>
<circle cx="5" cy="131" r="5" fill="#D9D9D9"/>
<circle cx="23" cy="5" r="5" fill="#D9D9D9"/>
<circle cx="23" cy="103" r="5" fill="#D9D9D9"/>
<circle cx="23" cy="89" r="5" fill="#D9D9D9"/>
<circle cx="23" cy="75" r="5" fill="#D9D9D9"/>
<circle cx="23" cy="61" r="5" fill="#D9D9D9"/>
<circle cx="23" cy="47" r="5" fill="#D9D9D9"/>
<circle cx="23" cy="33" r="5" fill="#D9D9D9"/>
<circle cx="23" cy="19" r="5" fill="#D9D9D9"/>
<circle cx="23" cy="117" r="5" fill="#D9D9D9"/>
<circle cx="23" cy="131" r="5" fill="#D9D9D9"/>
<circle cx="41" cy="5" r="5" fill="#D9D9D9"/>
<circle cx="41" cy="103" r="5" fill="#D9D9D9"/>
<circle cx="41" cy="89" r="5" fill="#D9D9D9"/>
<circle cx="41" cy="75" r="5" fill="#D9D9D9"/>
<circle cx="41" cy="61" r="5" fill="#D9D9D9"/>
<circle cx="41" cy="47" r="5" fill="#D9D9D9"/>
<circle cx="41" cy="33" r="5" fill="#D9D9D9"/>
<circle cx="41" cy="19" r="5" fill="#D9D9D9"/>
<circle cx="41" cy="117" r="5" fill="#D9D9D9"/>
<circle cx="41" cy="131" r="5" fill="#D9D9D9"/>
<circle cx="59" cy="5" r="5" fill="#D9D9D9"/>
<circle cx="59" cy="103" r="5" fill="#D9D9D9"/>
<circle cx="59" cy="89" r="5" fill="#D9D9D9"/>
<circle cx="59" cy="75" r="5" fill="#D9D9D9"/>
<circle cx="59" cy="61" r="5" fill="#D9D9D9"/>
<circle cx="59" cy="47" r="5" fill="#D9D9D9"/>
<circle cx="59" cy="33" r="5" fill="#D9D9D9"/>
<circle cx="59" cy="19" r="5" fill="#D9D9D9"/>
<circle cx="59" cy="117" r="5" fill="#D9D9D9"/>
<circle cx="59" cy="131" r="5" fill="#D9D9D9"/>
<circle cx="77" cy="5" r="5" fill="#D9D9D9"/>
<circle cx="77" cy="103" r="5" fill="#D9D9D9"/>
<circle cx="77" cy="89" r="5" fill="#D9D9D9"/>
<circle cx="77" cy="75" r="5" fill="#D9D9D9"/>
<circle cx="77" cy="61" r="5" fill="#D9D9D9"/>
<circle cx="77" cy="47" r="5" fill="#D9D9D9"/>
<circle cx="77" cy="33" r="5" fill="#D9D9D9"/>
<circle cx="77" cy="19" r="5" fill="#D9D9D9"/>
<circle cx="77" cy="117" r="5" fill="#D9D9D9"/>
<circle cx="77" cy="131" r="5" fill="#D9D9D9"/>
<circle cx="95" cy="5" r="5" fill="#D9D9D9"/>
<circle cx="95" cy="103" r="5" fill="#D9D9D9"/>
<circle cx="95" cy="89" r="5" fill="#D9D9D9"/>
<circle cx="95" cy="75" r="5" fill="#D9D9D9"/>
<circle cx="95" cy="61" r="5" fill="#D9D9D9"/>
<circle cx="95" cy="47" r="5" fill="#D9D9D9"/>
<circle cx="95" cy="33" r="5" fill="#D9D9D9"/>
<circle cx="95" cy="19" r="5" fill="#D9D9D9"/>
<circle cx="95" cy="117" r="5" fill="#D9D9D9"/>
<circle cx="95" cy="131" r="5" fill="#D9D9D9"/>
<circle cx="113" cy="5" r="5" fill="#D9D9D9"/>
<circle cx="113" cy="103" r="5" fill="#D9D9D9"/>
<circle cx="113" cy="89" r="5" fill="#D9D9D9"/>
<circle cx="113" cy="75" r="5" fill="#D9D9D9"/>
<circle cx="113" cy="61" r="5" fill="#D9D9D9"/>
<circle cx="113" cy="47" r="5" fill="#D9D9D9"/>
<circle cx="113" cy="33" r="5" fill="#D9D9D9"/>
<circle cx="113" cy="19" r="5" fill="#D9D9D9"/>
<circle cx="113" cy="117" r="5" fill="#D9D9D9"/>
<circle cx="113" cy="131" r="5" fill="#D9D9D9"/>
<circle cx="131" cy="5" r="5" fill="#D9D9D9"/>
<circle cx="131" cy="103" r="5" fill="#D9D9D9"/>
<circle cx="131" cy="89" r="5" fill="#D9D9D9"/>
<circle cx="131" cy="75" r="5" fill="#D9D9D9"/>
<circle cx="131" cy="61" r="5" fill="#D9D9D9"/>
<circle cx="131" cy="47" r="5" fill="#D9D9D9"/>
<circle cx="131" cy="33" r="5" fill="#D9D9D9"/>
<circle cx="131" cy="19" r="5" fill="#D9D9D9"/>
<circle cx="131" cy="117" r="5" fill="#D9D9D9"/>
<circle cx="131" cy="131" r="5" fill="#D9D9D9"/>
<circle cx="167" cy="5" r="5" fill="#D9D9D9"/>
<circle cx="167" cy="103" r="5" fill="#D9D9D9"/>
<circle cx="167" cy="89" r="5" fill="#D9D9D9"/>
<circle cx="167" cy="75" r="5" fill="#D9D9D9"/>
<circle cx="167" cy="61" r="5" fill="#D9D9D9"/>
<circle cx="167" cy="47" r="5" fill="#D9D9D9"/>
<circle cx="167" cy="33" r="5" fill="#D9D9D9"/>
<circle cx="167" cy="19" r="5" fill="#D9D9D9"/>
<circle cx="167" cy="117" r="5" fill="#D9D9D9"/>
<circle cx="167" cy="131" r="5" fill="#D9D9D9"/>
<circle cx="149" cy="5" r="5" fill="#D9D9D9"/>
<circle cx="149" cy="103" r="5" fill="#D9D9D9"/>
<circle cx="149" cy="89" r="5" fill="#D9D9D9"/>
<circle cx="149" cy="75" r="5" fill="#D9D9D9"/>
<circle cx="149" cy="61" r="5" fill="#D9D9D9"/>
<circle cx="149" cy="47" r="5" fill="#D9D9D9"/>
<circle cx="149" cy="33" r="5" fill="#D9D9D9"/>
<circle cx="149" cy="19" r="5" fill="#D9D9D9"/>
<circle cx="149" cy="117" r="5" fill="#D9D9D9"/>
<circle cx="149" cy="131" r="5" fill="#D9D9D9"/>
</svg>
