<svg width="100" height="100" viewBox="0 0 100 100" fill="none" xmlns="http://www.w3.org/2000/svg">
<circle cx="50" cy="50" r="50" fill="#FEE2B9"/>
<path d="M40.3083 35.4068C44.6876 18.8173 73.3301 24.2946 62.6187 50.8535C48.8022 84.7024 32.4376 74.4965 35.3373 63.4532" stroke="white" stroke-width="1.81" stroke-miterlimit="10" stroke-linecap="round" stroke-linejoin="round"/>
<path d="M48.8093 43.3271C53.0121 49.9472 55.8132 56.1338 50.132 58.6951C48.8093 59.2374 47.4084 59.0859 45.9825 59.8049C44.5297 60.488 44.26 61.0594 42.5373 62.9114C40.111 64.8619 37.0732 61.4488 38.7894 59.424C41.699 56.2126 44.8946 55.7101 43.2081 52.607C42.0541 50.522 42.8235 47.6125 46.5221 48.6764" stroke="white" stroke-width="1.81" stroke-miterlimit="10" stroke-linecap="round" stroke-linejoin="round"/>
<path d="M43.6762 39.4852C47.4394 24.4719 67.1892 29.7838 58.1063 50" stroke="white" stroke-width="1.81" stroke-miterlimit="10" stroke-linecap="round" stroke-linejoin="round"/>
</svg>
