<svg width="64" height="63" viewBox="0 0 64 63" fill="none" xmlns="http://www.w3.org/2000/svg">
<path d="M63.2203 31.6102C63.2203 14.1475 49.0609 0 31.6102 0C14.1475 0 0 14.1475 0 31.6102C0 47.3836 11.5555 60.4623 26.6711 62.8311V40.7494H18.6441V31.6121H26.6711V24.6441C26.6711 16.7237 31.383 12.3497 38.6059 12.3497C42.0652 12.3497 45.6866 12.9661 45.6866 12.9661V20.7442H41.6938C37.7741 20.7442 36.5492 23.1841 36.5492 25.6833V31.6102H45.3151L43.9065 40.7475H36.5492V62.8291C51.653 60.4604 63.2203 47.3817 63.2203 31.6082V31.6102Z" fill="#040650"/>
</svg>
