<svg width="740" height="784" viewBox="0 0 740 784" fill="none" xmlns="http://www.w3.org/2000/svg">
<path d="M125.106 627.39C-57.2156 417.697 163.725 293.067 267.762 150.777C393.765 -67.7713 507.432 69.0551 594.66 160.866C713.671 286.131 704.348 408.805 674.198 533.058C647.516 643.019 353.009 889.507 125.106 627.39Z" fill="url(#paint0_linear_135_7)"/>
<g clip-path="url(#clip0_135_7)">
<path d="M650.684 588.522H102.992V588.817H650.684V588.522Z" fill="#EBEBEB"/>
<path d="M448.772 596.57H420.883V596.866H448.772V596.57Z" fill="#EBEBEB"/>
<path d="M601.874 602.964H535.789V603.26H601.874V602.964Z" fill="#EBEBEB"/>
<path d="M414.946 596.712H346.671V597.008H414.946V596.712Z" fill="#EBEBEB"/>
<path d="M302.395 605.553H288.112V605.848H302.395V605.553Z" fill="#EBEBEB"/>
<path d="M381.318 605.553H316.274V605.848H381.318V605.553Z" fill="#EBEBEB"/>
<path d="M202.573 600.565H160.456V600.861H202.573V600.565Z" fill="#EBEBEB"/>
<path d="M362.598 535.811H151.09C149.433 535.808 147.845 535.096 146.674 533.83C145.504 532.565 144.846 530.85 144.846 529.063V208.27C144.861 206.492 145.525 204.793 146.694 203.54C147.863 202.288 149.443 201.583 151.09 201.58H362.598C364.257 201.58 365.848 202.291 367.021 203.557C368.194 204.822 368.852 206.539 368.852 208.329V529.063C368.852 530.852 368.194 532.569 367.021 533.834C365.848 535.1 364.257 535.811 362.598 535.811ZM151.09 201.817C149.506 201.82 147.987 202.501 146.868 203.711C145.749 204.921 145.12 206.56 145.12 208.27V529.063C145.12 530.772 145.749 532.412 146.868 533.621C147.987 534.831 149.506 535.512 151.09 535.516H362.598C364.183 535.512 365.703 534.832 366.824 533.622C367.945 532.413 368.576 530.773 368.579 529.063V208.27C368.576 206.559 367.945 204.92 366.824 203.71C365.703 202.501 364.183 201.82 362.598 201.817H151.09Z" fill="#EBEBEB"/>
<path d="M599.54 535.811H388.022C386.364 535.808 384.775 535.096 383.602 533.831C382.43 532.566 381.77 530.851 381.767 529.063V208.27C381.784 206.491 382.451 204.792 383.621 203.539C384.792 202.287 386.373 201.583 388.022 201.58H599.54C601.186 201.586 602.763 202.292 603.93 203.544C605.097 204.796 605.759 206.494 605.773 208.27V529.063C605.773 530.848 605.117 532.561 603.949 533.826C602.781 535.091 601.196 535.805 599.54 535.811ZM388.022 201.817C386.436 201.82 384.917 202.501 383.796 203.71C382.675 204.92 382.044 206.559 382.041 208.27V529.063C382.044 530.773 382.675 532.413 383.796 533.622C384.917 534.832 386.436 535.512 388.022 535.516H599.54C601.126 535.512 602.645 534.832 603.766 533.622C604.887 532.413 605.518 530.773 605.521 529.063V208.27C605.518 206.559 604.887 204.92 603.766 203.71C602.645 202.501 601.126 201.82 599.54 201.817H388.022Z" fill="#EBEBEB"/>
<path d="M235.117 439.808C235.117 439.808 234.635 455.172 215.816 455.172C196.998 455.172 196.516 439.808 196.516 439.808H235.117Z" fill="#F0F0F0"/>
<path d="M280.74 439.808C280.74 439.808 280.247 455.172 261.439 455.172C242.631 455.172 242.138 439.808 242.138 439.808H280.74Z" fill="#F0F0F0"/>
<path d="M224.327 465.313H181.136V578.051H224.327V465.313Z" fill="#F0F0F0"/>
<path d="M329.101 578.051H189.428V588.522H329.101V578.051Z" fill="#F0F0F0"/>
<path d="M224.327 578.062H337.393V465.325H224.327V578.062Z" fill="#F5F5F5"/>
<path d="M241.317 513.722H320.415V479.034H241.317V513.722Z" fill="#F0F0F0"/>
<path d="M241.317 558.29H320.415V523.602H241.317V558.29Z" fill="#F0F0F0"/>
<path d="M343.144 455.208H224.327V465.313H343.144V455.208Z" fill="#F0F0F0"/>
<path d="M175.101 465.325H224.327V455.22H175.101V465.325Z" fill="#E6E6E6"/>
<path d="M532.492 226.352H312.374V396.848H532.492V226.352Z" fill="#FAFAFA"/>
<path d="M324.895 396.848L380.891 226.352H422.91L366.914 396.848H324.895Z" fill="white"/>
<path d="M437.884 396.848L493.869 226.352H509.193L453.208 396.848H437.884Z" fill="white"/>
<path d="M542.986 220.49H301.881C301.621 220.49 301.372 220.601 301.187 220.797C301.003 220.994 300.898 221.262 300.895 221.542C300.895 221.682 300.92 221.82 300.97 221.949C301.019 222.078 301.092 222.195 301.184 222.294C301.275 222.393 301.384 222.471 301.503 222.525C301.623 222.578 301.751 222.606 301.881 222.606H542.986C543.115 222.606 543.243 222.578 543.363 222.525C543.483 222.471 543.591 222.393 543.683 222.294C543.774 222.195 543.847 222.078 543.897 221.949C543.946 221.82 543.972 221.682 543.972 221.542C543.969 221.262 543.864 220.994 543.679 220.797C543.494 220.601 543.245 220.49 542.986 220.49Z" fill="#E0E0E0"/>
<path d="M421.135 397.214H423.742V225.986H421.135V397.214Z" fill="#F0F0F0"/>
<path d="M423.731 397.214H425.035V225.986H423.731V397.214Z" fill="#E0E0E0"/>
<path d="M310.852 310.205V313.018H534.015V310.205H310.852Z" fill="#F0F0F0"/>
<path d="M534.015 395.678V224.709H310.852V395.678V398.49H534.015V395.678ZM313.459 395.678V227.581H531.44V395.678H313.459Z" fill="#F0F0F0"/>
<path d="M534.015 398.49H535.318V224.709H534.015V398.49Z" fill="#E0E0E0"/>
<path opacity="0.5" d="M501.657 217.914V418.133H548.769L540.127 217.914H501.657Z" fill="#EBEBEB"/>
<path opacity="0.5" d="M344.513 217.914V418.133H297.401L306.043 217.914H344.513Z" fill="#EBEBEB"/>
<path d="M605.828 444.654H374.527V485.795H605.828V444.654Z" fill="#EBEBEB"/>
<path d="M603.035 447.1H517.945V483.348H603.035V447.1Z" fill="#F5F5F5"/>
<path d="M514.922 447.1H429.833V483.348H514.922V447.1Z" fill="#F5F5F5"/>
<path d="M421.464 588.522H416.359L427.28 485.795H432.385L421.464 588.522Z" fill="#F5F5F5"/>
<path d="M376.476 588.522H371.361L382.282 485.795H387.397L376.476 588.522Z" fill="#F5F5F5"/>
<path d="M558.88 588.522H563.995L553.074 485.795H547.959L558.88 588.522Z" fill="#F5F5F5"/>
<path d="M603.867 588.522H608.983L598.062 485.795H592.946L603.867 588.522Z" fill="#F5F5F5"/>
<path d="M486.124 399.341H468.237L460.788 444.654H478.676L486.124 399.341Z" fill="#E0E0E0"/>
<path d="M525.909 359.95H425.867L428.912 425.614H528.954L525.909 359.95Z" fill="#E6E6E6"/>
<path d="M523.608 361.51H428.31L431.213 424.054H526.511L523.608 361.51Z" fill="#FAFAFA"/>
<path d="M551.157 439.17H553.096C553.532 439.17 553.885 438.789 553.885 438.319V438.272C553.885 437.802 553.532 437.421 553.096 437.421H551.157C550.722 437.421 550.369 437.802 550.369 438.272V438.319C550.369 438.789 550.722 439.17 551.157 439.17Z" fill="#E0E0E0"/>
<path d="M589.222 363.188L567.533 386.589C564.657 383.486 563.042 379.277 563.042 374.889C563.042 370.5 564.657 366.291 567.533 363.188C570.409 360.085 574.31 358.342 578.378 358.342C582.445 358.342 586.346 360.085 589.222 363.188Z" fill="#E6E6E6"/>
<path d="M559.099 365.859L567.555 374.983L578.509 363.165L570.053 354.052C569.334 353.275 568.481 352.658 567.541 352.237C566.601 351.816 565.593 351.599 564.576 351.599C563.558 351.599 562.551 351.816 561.611 352.237C560.671 352.658 559.817 353.275 559.099 354.052C558.38 354.827 557.809 355.748 557.42 356.761C557.031 357.773 556.831 358.859 556.831 359.956C556.831 361.052 557.031 362.138 557.42 363.151C557.809 364.164 558.38 365.084 559.099 365.859Z" fill="#E6E6E6"/>
<path d="M521.718 391.451L523.012 392.847L559.106 353.903L557.812 352.507L521.718 391.451Z" fill="#E6E6E6"/>
<path d="M547.455 440.216L549.029 439.209L522.991 391.838L521.418 392.845L547.455 440.216Z" fill="#E6E6E6"/>
<path d="M559.099 357.503C560.841 357.503 562.254 355.98 562.254 354.1C562.254 352.22 560.841 350.696 559.099 350.696C557.357 350.696 555.944 352.22 555.944 354.1C555.944 355.98 557.357 357.503 559.099 357.503Z" fill="#E6E6E6"/>
<path d="M522.327 394.366C523.44 394.366 524.342 393.392 524.342 392.191C524.342 390.99 523.44 390.016 522.327 390.016C521.214 390.016 520.311 390.99 520.311 392.191C520.311 393.392 521.214 394.366 522.327 394.366Z" fill="#E6E6E6"/>
<path d="M540.324 438.284H555.188L556.36 444.654H539.163L540.324 438.284Z" fill="#E6E6E6"/>
<path d="M376.838 641.895C494.134 641.895 589.222 635.905 589.222 628.516C589.222 621.127 494.134 615.138 376.838 615.138C259.541 615.138 164.454 621.127 164.454 628.516C164.454 635.905 259.541 641.895 376.838 641.895Z" fill="#F5F5F5"/>
<path d="M479.048 434.159H217.744C214.238 434.13 210.878 432.637 208.37 429.993C205.862 427.348 204.4 423.758 204.293 419.977L200.864 260.283C200.82 258.436 201.12 256.598 201.746 254.877C202.372 253.157 203.311 251.589 204.508 250.267C205.704 248.945 207.135 247.895 208.714 247.18C210.293 246.464 211.989 246.097 213.702 246.101H475.006C478.513 246.13 481.873 247.623 484.381 250.267C486.889 252.912 488.35 256.502 488.458 260.283L491.853 419.977C491.897 421.821 491.598 423.656 490.975 425.374C490.351 427.092 489.415 428.658 488.222 429.98C487.028 431.302 485.602 432.352 484.026 433.07C482.451 433.788 480.758 434.158 479.048 434.159Z" fill="#F77F00"/>
<path d="M479.048 434.75H217.744C214.098 434.721 210.605 433.168 207.998 430.417C205.391 427.667 203.875 423.932 203.767 420L200.317 260.295C200.27 258.369 200.581 256.452 201.234 254.657C201.886 252.863 202.865 251.228 204.113 249.85C205.361 248.471 206.853 247.377 208.5 246.631C210.147 245.886 211.916 245.505 213.702 245.51H475.006C478.658 245.533 482.159 247.085 484.77 249.839C487.382 252.593 488.9 256.333 489.005 260.272L492.434 419.965C492.481 421.891 492.169 423.808 491.517 425.603C490.865 427.397 489.886 429.031 488.637 430.41C487.389 431.789 485.898 432.883 484.25 433.629C482.603 434.374 480.834 434.755 479.048 434.75ZM213.702 246.692C212.062 246.687 210.437 247.036 208.924 247.721C207.411 248.406 206.041 249.411 204.895 250.677C203.749 251.944 202.85 253.445 202.252 255.093C201.654 256.741 201.368 258.502 201.412 260.272L204.862 419.965C204.959 423.595 206.359 427.042 208.766 429.58C211.173 432.118 214.4 433.548 217.766 433.568H479.048C480.687 433.572 482.31 433.221 483.822 432.537C485.333 431.852 486.702 430.848 487.848 429.583C488.993 428.318 489.893 426.819 490.492 425.173C491.092 423.527 491.379 421.768 491.338 420L487.91 260.295C487.813 256.665 486.414 253.217 484.006 250.68C481.599 248.142 478.372 246.712 475.006 246.692H213.702Z" fill="#F77F00"/>
<path d="M481.239 434.159H219.935C216.428 434.13 213.068 432.637 210.56 429.993C208.052 427.348 206.591 423.758 206.484 419.977L203.055 260.283C203.011 258.436 203.311 256.598 203.937 254.877C204.562 253.157 205.501 251.589 206.698 250.267C207.895 248.945 209.325 247.895 210.905 247.18C212.484 246.464 214.18 246.097 215.893 246.101H477.197C480.704 246.13 484.064 247.623 486.572 250.267C489.08 252.912 490.541 256.502 490.648 260.283L494.044 419.977C494.088 421.821 493.789 423.656 493.165 425.374C492.542 427.092 491.606 428.658 490.412 429.98C489.219 431.302 487.793 432.352 486.217 433.07C484.642 433.788 482.949 434.158 481.239 434.159Z" fill="#F5F5F5"/>
<path d="M481.239 434.75H219.935C216.289 434.721 212.795 433.168 210.189 430.417C207.582 427.666 206.065 423.932 205.958 420L202.507 260.295C202.46 258.369 202.772 256.452 203.424 254.657C204.076 252.863 205.056 251.228 206.304 249.85C207.552 248.471 209.044 247.377 210.691 246.631C212.338 245.886 214.107 245.505 215.893 245.51H477.197C480.849 245.533 484.349 247.085 486.961 249.839C489.573 252.593 491.091 256.333 491.196 260.271L494.625 419.965C494.671 421.891 494.36 423.808 493.708 425.602C493.055 427.397 492.076 429.031 490.828 430.41C489.58 431.789 488.088 432.883 486.441 433.628C484.794 434.374 483.025 434.755 481.239 434.75ZM215.893 246.692C214.253 246.686 212.628 247.036 211.115 247.721C209.602 248.406 208.232 249.411 207.086 250.677C205.94 251.944 205.041 253.445 204.443 255.093C203.844 256.741 203.559 258.502 203.603 260.271L207.053 419.965C207.15 423.595 208.549 427.042 210.957 429.58C213.364 432.118 216.591 433.548 219.957 433.568H481.239C482.878 433.572 484.501 433.221 486.013 432.537C487.524 431.852 488.893 430.848 490.039 429.583C491.184 428.318 492.083 426.819 492.683 425.173C493.282 423.527 493.57 421.768 493.529 420L490.101 260.295C490.004 256.665 488.605 253.217 486.197 250.68C483.79 248.142 480.563 246.712 477.197 246.692H215.893Z" fill="#F77F00"/>
<path d="M254.407 290.787L236.738 273.059C245.096 263.321 259.949 263.321 269.6 273.059C272.685 276.151 275.017 280.016 276.391 284.311L254.407 290.787Z" fill="#E0E0E0"/>
<path opacity="0.2" d="M250.726 291.177L227.723 293.364C227.174 289.769 227.368 286.089 228.293 282.585C229.208 279.172 230.847 276.036 233.08 273.426L250.726 291.177Z" fill="#F77F00"/>
<path d="M254.407 292.584L241.656 307.451C239.938 305.722 238.491 303.702 237.373 301.471C236.276 299.259 235.535 296.861 235.183 294.38L254.407 292.584Z" fill="white"/>
<path opacity="0.6" d="M255.644 294.605L277.673 288.104C279.043 292.196 279.359 296.613 278.587 300.883C277.816 305.154 275.985 309.119 273.291 312.356C264.933 322.095 250.08 322.095 240.43 312.356L255.644 294.605Z" fill="#F77F00"/>
<path opacity="0.2" d="M314.927 290.787L297.258 273.059C305.616 263.321 320.469 263.321 330.12 273.059C333.208 276.151 335.544 280.015 336.922 284.311L314.927 290.787Z" fill="#F77F00"/>
<path d="M311.235 291.177L288.232 293.364C287.681 289.769 287.879 286.087 288.813 282.585C289.719 279.171 291.355 276.034 293.589 273.426L311.235 291.177Z" fill="#E0E0E0"/>
<path opacity="0.6" d="M314.927 292.584L302.165 307.451C300.447 305.722 299 303.702 297.883 301.471C296.785 299.259 296.044 296.861 295.692 294.38L314.927 292.584Z" fill="#F77F00"/>
<path d="M316.154 294.605L338.182 288.104C339.555 292.196 339.873 296.613 339.102 300.885C338.33 305.156 336.498 309.121 333.8 312.356C325.442 322.095 310.589 322.095 300.939 312.356L316.154 294.605Z" fill="white"/>
<g opacity="0.3">
<path d="M220.121 411.207H220.066C219.923 411.186 219.793 411.108 219.701 410.987C219.609 410.866 219.564 410.713 219.574 410.557C220.822 396.635 228.819 383.291 240.966 374.877C251.493 367.585 264.868 363.897 279.732 364.24C283.544 364.323 287.4 364.665 291.157 365.008C296.857 365.659 302.593 365.872 308.322 365.646C314.73 365.233 326.494 363.117 333.242 353.544C335.513 349.999 337.354 346.154 338.719 342.104C340.537 337.376 342.41 332.4 345.773 328.595C350.242 323.525 357.11 320.641 366.202 320.015C370.892 319.784 375.591 319.831 380.277 320.156C384.319 320.357 388.504 320.57 392.611 320.393C399.863 320.085 409.886 318.206 416.425 310.938C419.426 307.629 421.508 303.398 423.523 299.308C424.619 297.181 425.659 294.971 426.875 292.891C431.036 285.813 436.815 280.009 443.656 276.037C443.719 276 443.787 275.977 443.858 275.969C443.929 275.96 444.001 275.968 444.069 275.99C444.138 276.012 444.201 276.048 444.256 276.097C444.311 276.146 444.357 276.206 444.39 276.274C444.457 276.412 444.472 276.574 444.431 276.723C444.39 276.873 444.297 277 444.171 277.078C437.464 280.973 431.804 286.673 427.74 293.624C426.546 295.668 425.462 297.855 424.454 299.97C422.406 304.13 420.292 308.432 417.17 311.872C411.792 317.781 403.302 321.196 392.611 321.646C388.471 321.823 384.265 321.646 380.201 321.409C375.551 321.09 370.889 321.043 366.235 321.267C357.472 321.87 350.801 324.636 346.518 329.54C343.297 333.181 341.468 338.014 339.682 342.683C338.293 346.831 336.411 350.768 334.085 354.395C327.064 364.334 314.949 366.533 308.344 366.958C302.567 367.187 296.784 366.969 291.036 366.308C287.312 365.977 283.456 365.634 279.677 365.552C265.076 365.221 251.865 368.849 241.525 376.011C229.662 384.284 221.808 397.285 220.636 410.817C220.595 410.929 220.525 411.026 220.433 411.096C220.342 411.165 220.233 411.204 220.121 411.207Z" fill="#F77F00"/>
<path d="M445.946 281.876H445.847C445.708 281.834 445.59 281.735 445.518 281.6C445.446 281.465 445.427 281.305 445.464 281.155L446.658 276.132C446.791 275.56 446.963 274.999 447.173 274.454C447.183 274.434 447.189 274.412 447.189 274.389C447.189 274.366 447.183 274.344 447.173 274.324C443.711 274.421 440.266 274.88 436.887 275.695C436.817 275.712 436.745 275.714 436.674 275.701C436.604 275.688 436.536 275.659 436.476 275.617C436.416 275.575 436.364 275.521 436.323 275.457C436.283 275.393 436.255 275.321 436.241 275.246C436.225 275.17 436.223 275.092 436.235 275.016C436.247 274.94 436.274 274.867 436.312 274.802C436.351 274.737 436.402 274.681 436.461 274.638C436.52 274.594 436.587 274.564 436.657 274.548C440.077 273.721 443.56 273.239 447.063 273.106C447.259 273.101 447.454 273.147 447.63 273.242C447.806 273.337 447.957 273.477 448.071 273.65C448.189 273.833 448.261 274.044 448.282 274.266C448.304 274.487 448.272 274.71 448.191 274.915C448.007 275.407 447.853 275.913 447.731 276.428L446.526 281.45C446.493 281.585 446.416 281.702 446.309 281.78C446.203 281.858 446.074 281.892 445.946 281.876Z" fill="#F77F00"/>
</g>
<path d="M491.24 268.816C491.24 268.816 475.904 261.56 471.402 282.018C467.755 298.493 460.087 304.662 460.087 304.662C460.087 304.662 487.198 315.961 502.314 302.712L491.24 268.816Z" fill="#263238"/>
<path d="M473.418 337.695C472.859 339.326 472.323 340.721 471.731 342.186C471.139 343.652 470.526 345.058 469.902 346.477C468.642 349.313 467.218 352.055 465.772 354.75C462.841 360.251 459.441 365.446 455.618 370.267L454.884 371.166C454.621 371.485 454.49 371.686 453.942 372.288C452.924 373.393 451.667 374.206 450.283 374.652C449.019 375.036 447.691 375.116 446.395 374.888C445.361 374.713 444.352 374.395 443.393 373.943C441.833 373.19 440.362 372.238 439.012 371.107C437.781 370.086 436.604 368.993 435.485 367.833C431.337 363.371 427.684 358.406 424.597 353.036L428.485 349.868C432.19 354.111 436.173 358.06 440.403 361.687C442.224 363.292 444.263 364.584 446.45 365.516C447.326 365.835 447.928 365.694 447.775 365.646C447.622 365.599 447.633 365.646 447.665 365.646C447.698 365.646 447.906 365.304 448.082 365.044L448.684 364.193C451.888 359.569 454.78 354.703 457.338 349.632C458.63 347.079 459.835 344.467 461.007 341.844C461.588 340.532 462.157 339.22 462.705 337.896C463.253 336.572 463.8 335.19 464.239 333.996L473.418 337.695Z" fill="#FFC3BD"/>
<path d="M470.296 323.477C466.199 323.312 458.992 339.385 458.992 339.385L469.65 353.319C469.65 353.319 482.071 336.502 480.374 331.065C478.555 325.404 476.255 323.702 470.296 323.477Z" fill="#263238"/>
<path opacity="0.2" d="M469.617 327.354L464.074 346.087L469.069 352.599L469.617 327.354Z" fill="black"/>
<path d="M427.609 354.962L416.272 351.866L423.939 345.33C423.939 345.33 429.635 347.918 429.997 352.22L427.609 354.962Z" fill="#FFC3BD"/>
<path d="M410.959 346.618L416.841 341.891L423.896 345.33L416.217 351.866L410.959 346.618Z" fill="#FFC3BD"/>
<path d="M499.225 611.958H489.608L490.079 587.919H499.696L499.225 611.958Z" fill="#FFC3BD"/>
<path d="M488.677 610.753H499.521C499.707 610.751 499.887 610.821 500.028 610.952C500.169 611.082 500.261 611.264 500.288 611.462L501.515 620.692C501.538 620.926 501.515 621.161 501.448 621.385C501.381 621.608 501.27 621.813 501.125 621.987C500.979 622.161 500.801 622.3 500.602 622.394C500.403 622.489 500.187 622.537 499.97 622.536C496.202 622.465 494.384 622.229 489.63 622.229C486.705 622.229 478.314 622.56 474.294 622.56C470.274 622.56 470.044 618.246 471.72 617.832C479.256 616.083 484.58 613.672 487.121 611.367C487.561 610.979 488.109 610.763 488.677 610.753Z" fill="#263238"/>
<g opacity="0.2">
<path d="M490.079 587.919L489.838 600.317H499.455L499.707 587.919H490.079Z" fill="black"/>
</g>
<path d="M466.429 328.619C466.221 335.19 467.273 350.518 473.67 386.199L512.731 384.946C511.636 367.821 511.296 357.243 517.923 321.799C512.421 320.758 506.857 320.146 501.274 319.967C495.353 319.703 489.423 319.897 483.528 320.546C479.015 321.137 474.141 322.142 470.942 322.91C469.709 323.185 468.595 323.895 467.778 324.929C466.961 325.963 466.486 327.261 466.429 328.619Z" fill="#263238"/>
<path d="M498.919 298.493C497.966 304.686 497.166 316.008 501.274 319.979C498.186 325.224 493.325 328.963 487.724 330.403C478.72 325.475 483.528 320.546 483.528 320.546C489.849 318.703 489.542 313.609 488.304 308.858L498.919 298.493Z" fill="#FFC3BD"/>
<path d="M487.724 330.403L488.885 327.945L495.139 329.469L487.724 330.403Z" fill="#E0E0E0"/>
<path d="M488.885 327.945C490.9 326.952 500.189 320.428 500.551 318.384C501.285 319.246 505.217 319.506 505.217 319.506C505.217 319.506 502.862 331.171 498.305 339.704C495.194 332.093 492.237 330.309 488.885 327.945Z" fill="white"/>
<path d="M487.724 330.403L487.198 327.945L483.364 328.24L487.724 330.403Z" fill="#E0E0E0"/>
<path d="M487.198 327.945C484.098 325.723 484.854 321.078 485.16 319.046C484.427 319.896 480.494 320.156 480.494 320.156C480.494 320.156 474.93 331.171 479.497 339.704C481.655 333.582 483.846 330.309 487.198 327.945Z" fill="white"/>
<path opacity="0.2" d="M494.592 302.712L488.315 308.858C488.615 309.963 488.828 311.094 488.951 312.238C491.371 311.777 494.636 308.787 494.811 306.033C494.925 304.921 494.851 303.796 494.592 302.712Z" fill="black"/>
<path d="M502.04 284.31C501.92 294.616 502.04 298.977 497.505 304.497C490.626 312.77 478.884 310.406 476.189 300.266C473.736 291.153 474.338 275.837 483.473 271.251C485.483 270.23 487.701 269.781 489.917 269.946C492.132 270.111 494.272 270.885 496.133 272.193C497.993 273.502 499.513 275.302 500.547 277.423C501.581 279.544 502.095 281.915 502.04 284.31Z" fill="#FFC3BD"/>
<path d="M501.263 289.263L489.268 288.624C489.232 288.623 489.197 288.614 489.164 288.597C489.131 288.581 489.102 288.558 489.078 288.53C489.053 288.501 489.034 288.468 489.022 288.431C489.009 288.395 489.004 288.356 489.005 288.317C489.007 288.277 489.015 288.238 489.031 288.202C489.047 288.166 489.069 288.134 489.097 288.107C489.125 288.081 489.157 288.06 489.192 288.048C489.227 288.035 489.264 288.03 489.301 288.033L501.295 288.672C501.331 288.675 501.367 288.685 501.399 288.703C501.431 288.721 501.46 288.745 501.483 288.775C501.506 288.804 501.524 288.839 501.535 288.876C501.546 288.913 501.55 288.952 501.547 288.991C501.546 289.029 501.538 289.067 501.522 289.101C501.507 289.136 501.486 289.167 501.459 289.192C501.432 289.218 501.401 289.237 501.367 289.249C501.334 289.261 501.298 289.266 501.263 289.263Z" fill="white"/>
<path d="M473.67 386.199C473.67 386.199 478.61 463.315 481.338 494.836C484.196 527.632 487.91 597.918 487.91 597.918H500.912C500.912 597.918 503.629 526.439 502.599 494.091C501.504 458.836 502.194 385.289 502.194 385.289L473.67 386.199Z" fill="#263238"/>
<path d="M502.117 598.414H486.858L485.73 593.167L502.829 592.517L502.117 598.414Z" fill="#F77F00"/>
<path opacity="0.2" d="M502.095 412.826C500.518 410.935 498.809 411.916 496.859 417.305C490.364 435.695 497.286 465.041 502.336 481.942C501.997 460.904 502.007 433.225 502.095 412.826Z" fill="black"/>
<path d="M486.376 288.754C486.376 289.594 486.026 290.291 485.522 290.314C485.018 290.338 484.58 289.688 484.536 288.849C484.492 288.01 484.876 287.313 485.391 287.289C485.905 287.265 486.376 287.915 486.376 288.754Z" fill="#263238"/>
<path d="M477.613 289.038C477.613 289.877 477.263 290.574 476.759 290.598C476.255 290.622 475.817 289.972 475.773 289.133C475.729 288.293 476.113 287.596 476.627 287.572C477.142 287.549 477.613 288.14 477.613 289.038Z" fill="#263238"/>
<path d="M476.836 287.549L474.951 287.064C474.951 287.064 475.981 288.589 476.836 287.549Z" fill="#263238"/>
<path d="M480.987 289.664C480.386 291.609 479.538 293.454 478.468 295.148C478.876 295.436 479.338 295.623 479.821 295.695C480.304 295.766 480.796 295.721 481.261 295.562L480.987 289.664Z" fill="#ED847E"/>
<path d="M485.632 298.611C485.271 298.693 484.904 298.744 484.536 298.765C484.506 298.766 484.476 298.761 484.447 298.75C484.419 298.739 484.393 298.722 484.37 298.7C484.348 298.678 484.33 298.652 484.317 298.622C484.304 298.593 484.297 298.561 484.295 298.528C484.298 298.465 484.321 298.405 484.361 298.36C484.402 298.314 484.456 298.286 484.514 298.28C485.48 298.254 486.426 297.981 487.276 297.484C488.125 296.987 488.853 296.279 489.4 295.42C489.415 295.392 489.436 295.368 489.461 295.348C489.485 295.329 489.513 295.315 489.543 295.307C489.572 295.3 489.603 295.298 489.633 295.303C489.663 295.309 489.691 295.32 489.717 295.337C489.743 295.353 489.765 295.374 489.783 295.4C489.801 295.425 489.814 295.454 489.821 295.485C489.828 295.516 489.829 295.548 489.825 295.58C489.82 295.611 489.81 295.641 489.794 295.668C489.319 296.436 488.706 297.092 487.991 297.598C487.276 298.103 486.473 298.448 485.632 298.611Z" fill="#263238"/>
<path d="M504.998 293.6C504.72 294.539 504.273 295.41 503.683 296.162C503.093 296.914 502.371 297.534 501.558 297.985C499.368 299.167 497.812 297.193 498.02 294.699C498.206 292.465 499.565 289.133 501.953 288.979C502.474 288.955 502.993 289.072 503.462 289.32C503.931 289.568 504.336 289.938 504.638 290.397C504.941 290.857 505.132 291.39 505.195 291.949C505.258 292.509 505.19 293.076 504.998 293.6Z" fill="#FFC3BD"/>
<path d="M489.805 285.871C489.712 285.893 489.614 285.883 489.527 285.84C489.44 285.797 489.368 285.725 489.323 285.634C488.282 283.661 485.577 283.353 485.555 283.341C485.496 283.335 485.438 283.317 485.386 283.286C485.334 283.256 485.288 283.215 485.25 283.166C485.212 283.117 485.184 283.06 485.167 282.999C485.15 282.937 485.144 282.873 485.149 282.81C485.155 282.746 485.173 282.684 485.2 282.628C485.228 282.571 485.266 282.521 485.312 282.481C485.358 282.44 485.41 282.41 485.467 282.391C485.524 282.372 485.583 282.366 485.642 282.372C485.774 282.372 488.841 282.727 490.112 285.15C490.143 285.205 490.163 285.267 490.172 285.331C490.181 285.396 490.177 285.461 490.162 285.524C490.146 285.587 490.12 285.646 490.083 285.697C490.046 285.749 490 285.792 489.947 285.823L489.805 285.871Z" fill="#263238"/>
<path d="M474.787 284.216C474.71 284.236 474.629 284.232 474.553 284.205C474.478 284.178 474.411 284.128 474.36 284.062C474.317 284.017 474.282 283.963 474.258 283.903C474.235 283.843 474.223 283.779 474.223 283.714C474.223 283.649 474.235 283.584 474.258 283.524C474.282 283.464 474.317 283.41 474.36 283.365C474.884 282.829 475.519 282.435 476.213 282.217C476.906 281.999 477.638 281.963 478.347 282.112C478.465 282.146 478.565 282.228 478.627 282.341C478.688 282.454 478.706 282.588 478.676 282.715C478.642 282.84 478.566 282.947 478.462 283.013C478.358 283.078 478.235 283.099 478.117 283.07C477.555 282.955 476.976 282.989 476.428 283.168C475.881 283.347 475.382 283.666 474.973 284.098C474.921 284.153 474.857 284.193 474.787 284.216Z" fill="#263238"/>
<path d="M522.743 333.712C524.025 339.232 525.361 344.857 526.73 350.388C528.099 355.92 529.6 361.439 531.254 366.781C532.908 372.123 534.957 377.418 536.852 382.854C538.747 388.291 540.675 393.775 542.416 399.318L538.035 401.551C535.187 396.54 532.558 391.446 529.962 386.27C528.684 383.685 527.435 381.07 526.215 378.422C524.978 375.81 523.806 372.998 522.765 370.149C520.673 364.547 518.931 358.91 517.376 353.237C515.82 347.564 514.396 341.891 513.191 336.052L522.743 333.712Z" fill="#FFC3BD"/>
<path d="M517.923 321.799C521.867 322.981 526.971 337.341 526.971 337.341L512.107 349.538C512.107 349.538 506.236 337.589 507.725 332.07C509.292 326.338 513.41 320.476 517.923 321.799Z" fill="#263238"/>
<path d="M485.062 612.573C484.24 612.65 483.417 612.425 482.729 611.935C482.578 611.787 482.462 611.603 482.389 611.398C482.317 611.192 482.291 610.971 482.312 610.753C482.322 610.617 482.363 610.487 482.432 610.373C482.501 610.259 482.596 610.166 482.707 610.103C483.879 609.405 487.713 611.521 488.184 611.757C488.226 611.783 488.259 611.821 488.281 611.867C488.302 611.914 488.31 611.966 488.304 612.017C488.299 612.069 488.278 612.117 488.244 612.154C488.21 612.19 488.166 612.213 488.118 612.218C487.112 612.442 486.089 612.56 485.062 612.573ZM483.342 610.422C483.199 610.413 483.056 610.441 482.926 610.505C482.88 610.53 482.841 610.569 482.814 610.617C482.787 610.665 482.773 610.72 482.773 610.776C482.751 610.922 482.764 611.07 482.81 611.209C482.856 611.347 482.933 611.471 483.035 611.568C483.616 612.136 485.226 612.23 487.329 611.852C486.086 611.131 484.738 610.647 483.342 610.422Z" fill="#F77F00"/>
<path d="M488.041 612.206H487.954C486.803 611.639 484.536 609.405 484.667 608.235C484.667 607.952 484.898 607.609 485.522 607.538C485.749 607.509 485.98 607.533 486.199 607.606C486.418 607.679 486.62 607.801 486.793 607.964C487.997 609.051 488.217 611.84 488.227 611.958C488.231 612.002 488.223 612.045 488.206 612.085C488.189 612.124 488.162 612.158 488.129 612.183C488.101 612.197 488.072 612.205 488.041 612.206ZM485.752 607.999H485.62C485.204 607.999 485.171 608.224 485.16 608.283C485.062 608.992 486.595 610.753 487.767 611.521C487.676 610.342 487.247 609.223 486.541 608.318C486.324 608.109 486.043 607.995 485.752 607.999Z" fill="#F77F00"/>
<path d="M555.681 611.958H546.064L540.236 587.919H549.865L555.681 611.958Z" fill="#FFC3BD"/>
<path d="M555.769 610.753H544.958C544.871 610.745 544.783 610.758 544.702 610.791C544.621 610.825 544.547 610.877 544.487 610.945C544.427 611.014 544.382 611.095 544.356 611.185C544.329 611.274 544.321 611.369 544.333 611.462L544.99 620.692C545.061 621.192 545.292 621.65 545.641 621.986C545.991 622.323 546.439 622.517 546.907 622.536C550.664 622.465 552.384 622.229 557.182 622.229C560.107 622.229 563.02 622.56 567.04 622.56C571.061 622.56 570.414 618.246 568.651 617.832C560.753 616.083 560.49 613.672 557.478 611.367C556.978 610.982 556.383 610.768 555.769 610.753Z" fill="#263238"/>
<g opacity="0.2">
<path d="M540.247 587.919L543.238 600.317H552.866L549.865 587.919H540.247Z" fill="black"/>
</g>
<path d="M512.731 384.946C523.849 401.019 530.619 460.042 535.537 491.597C540.653 524.418 553.228 597.965 553.228 597.965H540.225C540.225 597.965 522.535 523.153 513.268 491.479C503.026 456.508 487.724 384.993 487.724 384.993L512.731 384.946Z" fill="#263238"/>
<path d="M554.159 598.414H538.889L537.772 593.167L554.871 592.517L554.159 598.414Z" fill="#F77F00"/>
<path d="M557.051 611.048C557.826 610.737 558.479 610.149 558.902 609.382C558.981 609.175 559.013 608.951 558.994 608.729C558.975 608.506 558.905 608.292 558.792 608.105C558.731 607.989 558.644 607.891 558.539 607.821C558.434 607.751 558.313 607.71 558.19 607.704C556.842 607.621 554.224 611.308 553.929 611.734C553.902 611.775 553.887 611.825 553.887 611.875C553.887 611.926 553.902 611.976 553.929 612.017C553.953 612.06 553.99 612.092 554.034 612.109C554.078 612.127 554.126 612.127 554.17 612.112C555.159 611.856 556.124 611.5 557.051 611.048ZM557.741 608.306C557.87 608.234 558.012 608.194 558.157 608.188C558.208 608.19 558.258 608.208 558.301 608.239C558.344 608.271 558.377 608.314 558.398 608.365C558.475 608.485 558.523 608.623 558.539 608.767C558.554 608.911 558.536 609.058 558.485 609.193C558.179 609.973 556.788 610.8 554.717 611.45C555.554 610.226 556.576 609.163 557.741 608.306Z" fill="#F77F00"/>
<path d="M554.214 612.1C554.243 612.087 554.269 612.067 554.29 612.041C555.101 611.001 556.251 607.928 555.627 606.947C555.473 606.711 555.167 606.486 554.531 606.723C554.316 606.804 554.119 606.932 553.951 607.099C553.784 607.265 553.649 607.467 553.556 607.692C552.899 609.228 553.819 611.852 553.852 611.97C553.867 612.01 553.89 612.045 553.921 612.072C553.952 612.099 553.988 612.117 554.027 612.124C554.058 612.136 554.091 612.14 554.123 612.136C554.155 612.132 554.186 612.119 554.214 612.1ZM554.597 607.243L554.728 607.184C555.123 607.03 555.221 607.184 555.243 607.184C555.627 607.763 554.936 610.067 554.148 611.308C553.757 610.202 553.696 608.991 553.973 607.845C554.104 607.568 554.327 607.353 554.597 607.243Z" fill="#F77F00"/>
<path d="M485.599 287.324L483.715 286.84C483.715 286.84 484.744 288.364 485.599 287.324Z" fill="#263238"/>
<path d="M513.246 382.405L514.342 386.152C514.484 386.435 514.166 386.743 513.717 386.766L473.517 388.054C473.166 388.054 472.87 387.889 472.837 387.653L472.388 383.883C472.388 383.623 472.651 383.398 473.035 383.386L512.589 382.11C512.713 382.095 512.838 382.114 512.953 382.166C513.068 382.217 513.169 382.3 513.246 382.405Z" fill="#F77F00"/>
<path d="M508.065 387.404H509.16C509.368 387.404 509.522 387.274 509.511 387.133L508.876 382.24C508.876 382.098 508.667 381.992 508.459 381.992H507.364C507.156 381.992 507.002 382.122 507.013 382.263L507.649 387.156C507.671 387.298 507.857 387.404 508.065 387.404Z" fill="#263238"/>
<path d="M476.518 388.409H477.613C477.821 388.409 477.975 388.279 477.964 388.137L477.328 383.256C477.328 383.114 477.12 382.996 476.912 383.008H475.817C475.609 383.008 475.455 383.138 475.466 383.28L476.102 388.161C476.123 388.314 476.31 388.421 476.518 388.409Z" fill="#263238"/>
<path d="M492.291 387.901H493.387C493.595 387.901 493.748 387.771 493.737 387.617L493.102 382.736C493.102 382.594 492.894 382.488 492.686 382.488H491.59C491.382 382.488 491.229 382.618 491.24 382.76L491.875 387.641C491.853 387.806 492.083 387.913 492.291 387.901Z" fill="#263238"/>
<path d="M541.31 397.45L548.978 405.026L539.272 406.373C539.272 406.373 535.636 400.996 537.366 397.108L541.31 397.45Z" fill="#FFC3BD"/>
<path d="M550.281 413.642L542.098 414.292L539.25 406.373L548.956 405.038L550.281 413.642Z" fill="#FFC3BD"/>
<path d="M492.401 269.892C492.401 269.892 484.328 265.897 475.422 278.011C486.146 281.45 493.354 279.063 493.354 279.063L492.401 269.892Z" fill="#263238"/>
<path d="M491.24 268.816C491.24 268.816 493.19 299.273 491.24 314.448C502.566 310.572 513.399 298.481 513.399 298.481C513.399 298.481 511.811 265.141 491.24 268.816Z" fill="#263238"/>
<path d="M485.489 295.81C482.948 295.81 480.615 292.418 480.275 288.246C480.131 287.126 480.196 285.987 480.467 284.895C480.738 283.803 481.209 282.78 481.852 281.888C482.156 281.501 482.534 281.189 482.959 280.973C483.384 280.757 483.847 280.642 484.317 280.635C486.858 280.635 489.202 284.027 489.542 288.199C489.687 289.32 489.621 290.46 489.348 291.553C489.075 292.645 488.601 293.667 487.954 294.557C487.65 294.944 487.273 295.256 486.847 295.472C486.422 295.688 485.959 295.804 485.489 295.81ZM484.317 281.226C483.925 281.236 483.539 281.335 483.184 281.516C482.829 281.697 482.514 281.957 482.258 282.278C481.667 283.111 481.235 284.062 480.989 285.077C480.743 286.091 480.686 287.149 480.823 288.187C481.129 292.052 483.233 295.207 485.489 295.207C485.883 295.2 486.271 295.102 486.626 294.918C486.982 294.735 487.296 294.47 487.548 294.144C488.142 293.312 488.576 292.361 488.825 291.347C489.073 290.332 489.131 289.274 488.994 288.234C488.677 284.37 486.584 281.226 484.317 281.226Z" fill="white"/>
<path d="M475.948 295.81C473.889 295.81 472.005 292.489 471.665 288.246C471.435 285.398 471.983 282.81 473.089 281.51C473.297 281.243 473.555 281.028 473.846 280.877C474.137 280.726 474.454 280.644 474.776 280.635C476.836 280.635 478.709 283.956 479.059 288.199C479.278 291.047 478.731 293.624 477.624 294.936C477.418 295.2 477.162 295.415 476.873 295.566C476.584 295.717 476.269 295.8 475.948 295.81ZM474.776 281.226C474.529 281.232 474.286 281.296 474.065 281.415C473.843 281.533 473.649 281.703 473.495 281.911C472.498 283.093 471.994 285.552 472.213 288.199C472.509 292.005 474.229 295.219 475.948 295.219C476.193 295.209 476.433 295.143 476.652 295.025C476.871 294.906 477.065 294.739 477.219 294.534C478.216 293.352 478.72 290.894 478.512 288.246C478.205 284.441 476.518 281.226 474.776 281.226Z" fill="white"/>
<path d="M480.549 288.518H480.428C480.197 288.386 479.94 288.316 479.678 288.316C479.416 288.316 479.159 288.386 478.928 288.518C478.866 288.558 478.793 288.57 478.724 288.553C478.654 288.535 478.594 288.489 478.555 288.423C478.535 288.392 478.521 288.356 478.514 288.319C478.507 288.281 478.507 288.242 478.514 288.205C478.521 288.167 478.535 288.132 478.556 288.1C478.576 288.069 478.602 288.042 478.632 288.022C478.945 287.846 479.292 287.754 479.645 287.754C479.998 287.754 480.346 287.846 480.658 288.022C480.723 288.055 480.774 288.114 480.801 288.186C480.827 288.259 480.827 288.339 480.801 288.412C480.769 288.449 480.73 288.478 480.686 288.496C480.643 288.515 480.596 288.522 480.549 288.518Z" fill="white"/>
<path d="M526.533 468.492H227.132V479.519H526.533V468.492Z" fill="#F77F00"/>
<path opacity="0.8" d="M526.533 468.492H227.132V479.519H526.533V468.492Z" fill="white"/>
<path opacity="0.3" d="M526.544 468.492H438.913V479.519H526.544V468.492Z" fill="#F77F00"/>
<path d="M460.273 626.661H454.435L446.669 479.519H460.273V626.661Z" fill="#F77F00"/>
<path d="M520.695 626.661H526.544L518.778 479.519H505.173L520.695 626.661Z" fill="#F77F00"/>
<path d="M232.981 626.661H227.132L234.898 479.519H248.503L232.981 626.661Z" fill="#F77F00"/>
<path d="M293.402 626.661H299.241L307.007 479.519H293.402V626.661Z" fill="#F77F00"/>
<path d="M434.291 415.663H370.408C369.663 415.688 368.948 415.987 368.381 416.509C367.813 417.03 367.427 417.745 367.286 418.535L360.298 461.708C360.228 462.057 360.233 462.419 360.311 462.766C360.39 463.113 360.54 463.436 360.751 463.711C360.961 463.986 361.227 464.206 361.528 464.355C361.829 464.503 362.157 464.576 362.488 464.568H426.36C427.104 464.543 427.817 464.247 428.385 463.727C428.952 463.208 429.339 462.496 429.482 461.708L436.471 418.535C436.542 418.186 436.539 417.824 436.462 417.477C436.385 417.129 436.236 416.805 436.026 416.529C435.816 416.252 435.551 416.031 435.251 415.881C434.95 415.731 434.622 415.656 434.291 415.663Z" fill="#F77F00"/>
<path opacity="0.2" d="M434.291 415.663H370.408C369.663 415.688 368.948 415.987 368.381 416.509C367.813 417.03 367.427 417.745 367.286 418.535L360.298 461.708C360.228 462.057 360.233 462.419 360.311 462.766C360.39 463.113 360.54 463.436 360.751 463.711C360.961 463.986 361.227 464.206 361.528 464.355C361.829 464.503 362.157 464.576 362.488 464.568H426.36C427.104 464.543 427.817 464.247 428.385 463.727C428.952 463.208 429.339 462.496 429.482 461.708L436.471 418.535C436.542 418.186 436.539 417.824 436.462 417.477C436.385 417.129 436.236 416.805 436.026 416.529C435.816 416.252 435.551 416.031 435.251 415.881C434.95 415.731 434.622 415.656 434.291 415.663Z" fill="white"/>
<path d="M433.064 415.663H369.17C368.425 415.688 367.71 415.987 367.143 416.509C366.576 417.03 366.19 417.745 366.048 418.535L359.06 461.708C358.99 462.057 358.995 462.419 359.073 462.766C359.152 463.113 359.302 463.436 359.513 463.711C359.724 463.986 359.99 464.206 360.29 464.355C360.591 464.503 360.92 464.576 361.251 464.568H425.122C425.879 464.562 426.611 464.274 427.194 463.753C427.776 463.232 428.175 462.509 428.321 461.708L435.309 418.535C435.382 418.18 435.378 417.812 435.298 417.459C435.217 417.106 435.062 416.777 434.845 416.5C434.628 416.222 434.354 416.002 434.045 415.857C433.736 415.711 433.4 415.645 433.064 415.663Z" fill="#F77F00"/>
<path opacity="0.4" d="M433.064 415.663H369.17C368.425 415.688 367.71 415.987 367.143 416.509C366.576 417.03 366.19 417.745 366.048 418.535L359.06 461.708C358.99 462.057 358.995 462.419 359.073 462.766C359.152 463.113 359.302 463.436 359.513 463.711C359.724 463.986 359.99 464.206 360.29 464.355C360.591 464.503 360.92 464.576 361.251 464.568H425.122C425.879 464.562 426.611 464.274 427.194 463.753C427.776 463.232 428.175 462.509 428.321 461.708L435.309 418.535C435.382 418.18 435.378 417.812 435.298 417.459C435.217 417.106 435.062 416.777 434.845 416.5C434.628 416.222 434.354 416.002 434.045 415.857C433.736 415.711 433.4 415.645 433.064 415.663Z" fill="white"/>
<path d="M361.283 463.386C361.116 463.394 360.948 463.362 360.793 463.293C360.638 463.224 360.499 463.118 360.385 462.985C360.279 462.833 360.205 462.658 360.167 462.473C360.129 462.287 360.129 462.095 360.166 461.909L367.155 418.736C367.251 418.221 367.504 417.756 367.873 417.414C368.242 417.071 368.706 416.871 369.192 416.845H433.064C433.233 416.839 433.4 416.873 433.555 416.945C433.71 417.016 433.849 417.123 433.962 417.258C434.069 417.41 434.144 417.584 434.181 417.77C434.219 417.956 434.219 418.148 434.181 418.334L427.226 461.495C427.129 462.01 426.876 462.475 426.507 462.818C426.138 463.16 425.674 463.36 425.188 463.386H361.283Z" fill="white"/>
<path d="M425.473 464.568H345.137C344.195 464.574 343.293 464.981 342.626 465.7C341.96 466.419 341.583 467.392 341.577 468.409H429.033C429.027 467.392 428.65 466.419 427.984 465.7C427.317 464.981 426.415 464.574 425.473 464.568Z" fill="#F77F00"/>
<path opacity="0.4" d="M425.473 464.568H345.137C344.195 464.574 343.293 464.981 342.626 465.7C341.96 466.419 341.583 467.392 341.577 468.409H429.033C429.027 467.392 428.65 466.419 427.984 465.7C427.317 464.981 426.415 464.574 425.473 464.568Z" fill="white"/>
<path opacity="0.8" d="M425.473 464.568H407.574C406.632 464.574 405.73 464.981 405.063 465.7C404.397 466.419 404.02 467.392 404.014 468.409H429.033C429.027 467.392 428.65 466.419 427.984 465.7C427.317 464.981 426.415 464.574 425.473 464.568Z" fill="#F77F00"/>
<path d="M467.547 449.204H455.815C455.095 449.204 454.512 449.834 454.512 450.611V467.086C454.512 467.862 455.095 468.492 455.815 468.492H467.547C468.267 468.492 468.85 467.862 468.85 467.086V450.611C468.85 449.834 468.267 449.204 467.547 449.204Z" fill="#F77F00"/>
<path d="M456.396 458.6L456.604 457.489H455.618V456.307H456.801L457.086 454.747H458.181L457.885 456.307H458.773L459.068 454.747H460.219L459.923 456.307H460.481V457.489H459.704L459.496 458.6H460.481V459.782H459.266L458.981 461.318H457.896L458.181 459.794H457.294L457.009 461.33H455.914L456.199 459.794H455.64V458.612L456.396 458.6ZM457.546 458.6H458.433L458.641 457.489H457.754L457.546 458.6Z" fill="white"/>
<path d="M464.907 454.735V461.235H463.242V456.969C462.999 457.176 462.739 457.358 462.464 457.513C462.155 457.666 461.837 457.796 461.511 457.903V456.449C461.985 456.298 462.43 456.058 462.826 455.74C463.134 455.468 463.381 455.125 463.548 454.735H464.907Z" fill="white"/>
<path d="M470.197 466.377C467.36 466.377 465.137 463.067 465.137 458.848C465.137 454.629 467.404 451.308 470.197 451.308C472.991 451.308 475.258 454.688 475.258 458.848C475.258 463.008 473.035 466.377 470.197 466.377ZM470.197 453.045C468.324 453.045 466.747 455.693 466.747 458.848C466.747 462.004 468.324 464.639 470.197 464.639C472.071 464.639 473.648 461.992 473.648 458.848C473.648 455.704 472.06 453.045 470.197 453.045Z" fill="#F77F00"/>
<path d="M301.859 413.264L300.84 414.965L299.745 416.833C299.033 418.086 298.343 419.362 297.652 420.65C296.294 423.227 294.98 425.839 293.764 428.486C291.32 433.699 289.272 439.118 287.641 444.689C287.246 446.06 286.896 447.431 286.545 448.802L286.096 450.87L285.91 451.899L285.811 452.419C285.811 452.584 285.746 452.809 285.746 452.761C285.746 452.714 285.658 452.761 285.548 452.454C285.431 452.181 285.25 451.944 285.023 451.769C284.836 451.65 284.804 451.769 284.902 451.875C285.129 452.097 285.383 452.284 285.658 452.43C286.593 452.926 287.584 453.292 288.605 453.518C289.844 453.83 291.098 454.07 292.362 454.239C294.969 454.605 297.839 454.782 300.533 454.936H300.807C301.695 454.986 302.538 455.366 303.195 456.011C303.852 456.657 304.282 457.528 304.411 458.476C304.54 459.425 304.361 460.392 303.904 461.214C303.446 462.036 302.739 462.661 301.903 462.984C298.878 464.155 295.751 464.99 292.57 465.478C289.013 466.104 285.379 466.004 281.857 465.183C280.719 464.881 279.617 464.441 278.571 463.871C277.249 463.148 276.055 462.18 275.044 461.011C273.862 459.625 272.985 457.968 272.481 456.165C272.052 454.538 271.9 452.84 272.031 451.154C272.031 450.705 272.031 450.539 272.097 450.315L272.174 449.665L272.316 448.341C272.437 447.478 272.546 446.604 272.678 445.741C272.952 444.016 273.258 442.302 273.642 440.624C275.141 433.982 277.247 427.517 279.929 421.324C281.255 418.275 282.668 415.273 284.212 412.353C284.979 410.888 285.789 409.446 286.622 408.016C287.038 407.295 287.465 406.586 287.915 405.865C288.364 405.144 288.78 404.494 289.349 403.643C290.529 401.931 292.276 400.777 294.225 400.422C296.175 400.067 298.176 400.537 299.812 401.736C301.447 402.935 302.59 404.769 303.002 406.855C303.414 408.941 303.063 411.119 302.023 412.933L301.859 413.264Z" fill="#F77F00"/>
<path d="M331.149 365.564C331.259 366.367 331.741 366.946 332.245 366.875C332.749 366.805 333.033 366.084 332.924 365.292C332.814 364.5 332.332 363.909 331.828 363.98C331.325 364.051 331.04 364.772 331.149 365.564Z" fill="#263238"/>
<path d="M331.675 366.958C332.892 369.253 334.396 371.357 336.144 373.21C335.694 373.68 335.153 374.038 334.561 374.258C333.969 374.479 333.339 374.557 332.716 374.487L331.675 366.958Z" fill="#A02724"/>
<path d="M327.918 361.569C328.011 361.561 328.097 361.514 328.159 361.439C328.541 361.01 329.014 360.687 329.536 360.496C330.058 360.304 330.615 360.251 331.16 360.34C331.275 360.365 331.394 360.34 331.492 360.272C331.59 360.203 331.66 360.096 331.686 359.973C331.709 359.851 331.686 359.724 331.622 359.62C331.559 359.516 331.46 359.444 331.347 359.418C330.659 359.295 329.955 359.353 329.293 359.588C328.631 359.822 328.031 360.226 327.546 360.765C327.465 360.856 327.419 360.976 327.419 361.102C327.419 361.228 327.465 361.349 327.546 361.439C327.595 361.489 327.654 361.526 327.718 361.549C327.783 361.571 327.851 361.578 327.918 361.569Z" fill="#263238"/>
<path d="M309.45 374.368C309.767 381.814 309.242 395.264 303.885 399.341C303.885 399.341 304.707 406.964 317.161 408.973C330.843 411.172 324.719 402.686 324.719 402.686C317.512 399.566 318.53 393.609 320.612 388.208L309.45 374.368Z" fill="#B55B52"/>
<path d="M301.738 402.32C301.202 398.951 300.643 395.11 302.998 394.519C305.583 393.869 318.969 395.796 323.197 399.247C327.425 402.698 325.256 408.702 325.256 408.702L301.738 402.32Z" fill="#E0E0E0"/>
<path d="M337.831 414.871C338.335 426.784 337.831 450.41 330.339 486.173H280.805C280.499 478.739 287.608 446.687 286.994 411.467C286.964 409.702 287.259 407.947 287.863 406.306C288.467 404.665 289.368 403.171 290.513 401.909C291.658 400.647 293.024 399.644 294.532 398.958C296.04 398.271 297.659 397.916 299.296 397.911C300.27 397.911 301.3 397.911 302.363 398.041C309.37 398.567 316.342 399.546 323.241 400.972C325.3 401.48 327.305 402.071 329.123 402.674C331.562 403.492 333.707 405.102 335.266 407.286C336.825 409.469 337.721 412.118 337.831 414.871Z" fill="#F77F00"/>
<path opacity="0.2" d="M330.35 436.31C329.561 442.361 327.743 452.856 334.304 464.462C335.049 459.652 335.651 455.149 336.144 450.941L330.35 436.31Z" fill="black"/>
<path d="M368.951 450.953L377.287 447.857L373.891 438.402C371.997 438.698 370.213 439.544 368.729 440.849C367.246 442.154 366.118 443.87 365.468 445.812L368.951 450.953Z" fill="#B55B52"/>
<path d="M381.701 445.162L382.589 437.527L373.891 438.307L377.287 447.798L381.701 445.162Z" fill="#B55B52"/>
<path d="M337.776 413.772C338.236 415.509 338.806 417.53 339.354 419.421C339.901 421.312 340.449 423.25 341.084 425.153C342.267 428.959 343.571 432.705 344.94 436.369C346.309 440.033 347.843 443.59 349.497 446.911C351.008 450.053 352.846 452.999 354.974 455.692L346.945 454.357C348.489 453.636 350.078 452.891 351.677 451.993C353.276 451.095 354.908 450.291 356.518 449.346L361.448 446.545C363.091 445.611 364.734 444.595 366.41 443.72L366.585 443.626C367.367 443.202 368.26 443.077 369.116 443.27C369.973 443.463 370.744 443.964 371.304 444.69C371.864 445.416 372.179 446.324 372.2 447.268C372.22 448.213 371.944 449.136 371.416 449.889C370.19 451.636 368.881 453.312 367.494 454.912C366.125 456.508 364.69 458.021 363.2 459.51C361.711 460.999 360.133 462.405 358.49 463.753C356.847 465.1 355.105 466.4 353.254 467.606C352.068 468.369 350.684 468.693 349.311 468.529C347.939 468.365 346.654 467.721 345.652 466.696L345.225 466.258C341.979 462.862 339.161 459.02 336.845 454.83C334.646 450.976 332.689 446.969 330.985 442.834C329.265 438.78 327.787 434.667 326.439 430.531C325.771 428.462 325.125 426.382 324.544 424.29C323.964 422.198 323.449 420.142 322.89 417.826C322.366 415.705 322.644 413.447 323.662 411.547C324.681 409.648 326.358 408.263 328.323 407.697C330.289 407.131 332.382 407.431 334.142 408.53C335.903 409.63 337.186 411.439 337.711 413.559L337.776 413.772Z" fill="#F77F00"/>
<path d="M306.273 367.857C308.19 377.548 308.847 383.327 314.127 387.617C322.069 394.07 332.65 387.783 333.461 377.654C334.184 368.542 330.941 354.218 321.521 351.748C319.445 351.194 317.273 351.221 315.21 351.828C313.147 352.435 311.262 353.601 309.734 355.215C308.206 356.829 307.086 358.838 306.481 361.05C305.875 363.263 305.803 365.606 306.273 367.857Z" fill="#B55B52"/>
<path d="M325.629 368.873C329.923 368.518 329.671 366.379 328.707 364.807C327.743 363.235 326.571 357.586 326.571 357.586C326.571 357.586 332.54 359.288 331.314 353.119C330.087 346.949 322.025 339.137 314.981 343.924C300.95 341.43 296.36 347.54 298.551 353.189C287.411 358.508 295.451 369.275 299.887 369.275C295.933 373.08 301.837 378.564 311.411 384.722C318.421 375.609 328.761 378.056 325.629 368.873Z" fill="#263238"/>
<path d="M316.953 347.02C316.807 347.018 316.664 346.984 316.53 346.922C316.396 346.859 316.276 346.768 316.175 346.654C314.543 344.882 312.508 343.604 310.275 342.947C308.041 342.289 305.687 342.276 303.447 342.907C303.165 342.978 302.869 342.926 302.623 342.762C302.376 342.599 302.2 342.336 302.133 342.033C302.067 341.729 302.115 341.409 302.267 341.143C302.419 340.878 302.662 340.687 302.943 340.614C305.556 339.895 308.298 339.922 310.899 340.693C313.499 341.464 315.869 342.952 317.775 345.011C317.979 345.232 318.093 345.532 318.093 345.844C318.093 346.156 317.979 346.456 317.775 346.677C317.667 346.793 317.539 346.883 317.397 346.942C317.256 347.001 317.105 347.028 316.953 347.02Z" fill="#263238"/>
<path d="M302.439 380.041C302.295 380.042 302.152 380.012 302.019 379.954C301.885 379.895 301.764 379.808 301.662 379.699C298.573 376.342 297.28 373.718 297.674 371.426C297.858 370.559 298.239 369.756 298.782 369.087C299.325 368.419 300.013 367.907 300.785 367.596C301.048 367.462 301.35 367.445 301.624 367.55C301.898 367.656 302.123 367.874 302.248 368.158C302.373 368.441 302.388 368.767 302.29 369.063C302.193 369.359 301.99 369.601 301.727 369.736C300.577 370.327 299.964 371.012 299.832 371.827C299.701 372.643 300.139 374.688 303.217 378.02C303.32 378.13 303.401 378.261 303.457 378.405C303.512 378.549 303.541 378.704 303.541 378.86C303.541 379.016 303.512 379.17 303.457 379.314C303.401 379.458 303.32 379.589 303.217 379.699C303.115 379.808 302.993 379.895 302.86 379.954C302.726 380.012 302.583 380.042 302.439 380.041Z" fill="#263238"/>
<path d="M320.349 368.116C321.084 370.45 322.508 372.459 324.402 373.837C326.91 375.621 328.608 373.6 328.279 370.681C327.984 368.045 326.319 363.944 323.624 363.318C320.929 362.692 319.505 365.292 320.349 368.116Z" fill="#B55B52"/>
<path d="M405.997 618.009C407.18 618.009 408.33 617.832 408.714 617.265C408.812 617.112 408.865 616.931 408.865 616.745C408.865 616.559 408.812 616.377 408.714 616.225C408.639 616.087 408.54 615.966 408.421 615.871C408.303 615.775 408.167 615.707 408.023 615.669C406.479 615.22 403.248 617.206 403.105 617.3C403.067 617.322 403.037 617.358 403.019 617.4C403.001 617.443 402.997 617.491 403.007 617.537C403.012 617.584 403.03 617.629 403.06 617.665C403.089 617.701 403.128 617.726 403.171 617.738C404.104 617.911 405.05 618.002 405.997 618.009ZM407.465 616.071C407.605 616.071 407.745 616.091 407.881 616.13C407.972 616.149 408.057 616.188 408.133 616.245C408.208 616.302 408.272 616.376 408.319 616.461C408.473 616.757 408.418 616.898 408.319 616.981C407.881 617.631 405.537 617.643 403.817 617.383C404.957 616.69 406.211 616.244 407.509 616.071H407.465Z" fill="#F77F00"/>
<path d="M403.193 617.738H403.28C404.376 617.206 406.621 615.043 406.446 613.908C406.446 613.648 406.238 613.317 405.636 613.247C405.418 613.222 405.199 613.245 404.99 613.314C404.781 613.383 404.587 613.497 404.42 613.648C403.237 614.7 402.985 617.395 402.974 617.501C402.972 617.543 402.981 617.584 402.998 617.621C403.015 617.658 403.041 617.69 403.072 617.714C403.108 617.738 403.151 617.747 403.193 617.738ZM405.46 613.684H405.592C405.986 613.684 406.008 613.897 406.019 613.944C406.118 614.629 404.617 616.308 403.467 617.064C403.572 615.924 404 614.847 404.693 613.979C404.909 613.786 405.18 613.681 405.46 613.684Z" fill="#F77F00"/>
<path d="M392.666 617.501H401.933L400.17 594.36H390.903L392.666 617.501Z" fill="#B55B52"/>
<path d="M401.944 616.343H391.834C391.657 616.336 391.485 616.404 391.354 616.532C391.223 616.66 391.144 616.838 391.133 617.028L390.53 625.869C390.523 626.098 390.558 626.327 390.634 626.542C390.71 626.756 390.824 626.953 390.971 627.119C391.118 627.285 391.294 627.418 391.489 627.51C391.685 627.602 391.895 627.65 392.108 627.653C395.744 627.582 400.98 627.358 405.57 627.358C410.926 627.358 411.485 627.665 417.772 627.665C421.573 627.665 422.055 623.517 420.412 623.151C412.942 621.437 411.112 621.248 404.277 617.088C403.571 616.629 402.768 616.373 401.944 616.343Z" fill="#263238"/>
<path opacity="0.2" d="M400.159 594.372L401.079 606.297H391.812L390.903 594.372H400.159Z" fill="black"/>
<path d="M348.358 618.009C349.139 618.107 349.924 617.874 350.549 617.359C350.664 617.188 350.727 616.981 350.727 616.768C350.727 616.556 350.664 616.349 350.549 616.178C350.476 616.039 350.377 615.919 350.258 615.825C350.139 615.731 350.003 615.666 349.859 615.634C348.511 615.291 345.948 617.182 345.838 617.265C345.805 617.292 345.78 617.328 345.764 617.37C345.749 617.412 345.744 617.457 345.751 617.501C345.757 617.546 345.777 617.587 345.806 617.619C345.836 617.651 345.874 617.672 345.915 617.679C346.716 617.885 347.535 617.996 348.358 618.009ZM349.519 616.107C349.61 616.094 349.702 616.094 349.793 616.107C349.878 616.125 349.958 616.163 350.028 616.219C350.098 616.274 350.156 616.344 350.198 616.426C350.395 616.816 350.275 616.981 350.198 617.028C349.804 617.596 347.909 617.596 346.529 617.348C347.406 616.704 348.405 616.28 349.453 616.107H349.519Z" fill="#F77F00"/>
<path d="M345.97 617.738H346.069C347.032 617.17 348.884 614.984 348.686 613.873C348.654 613.698 348.566 613.54 348.439 613.426C348.311 613.312 348.151 613.248 347.985 613.247C347.819 613.224 347.65 613.24 347.49 613.293C347.329 613.346 347.181 613.435 347.054 613.554C345.959 614.499 345.751 617.383 345.751 617.501C345.746 617.545 345.753 617.589 345.771 617.629C345.788 617.668 345.815 617.702 345.849 617.726C345.888 617.742 345.93 617.746 345.97 617.738ZM347.832 613.684H347.931C348.215 613.684 348.248 613.861 348.259 613.92C348.369 614.582 347.164 616.284 346.233 617.017C346.3 615.878 346.681 614.787 347.328 613.885C347.469 613.756 347.647 613.685 347.832 613.684Z" fill="#F77F00"/>
<path d="M337.492 617.501H346.748L351.403 594.36H342.147L337.492 617.501Z" fill="#B55B52"/>
<path d="M347.405 616.343H337.01C336.825 616.341 336.646 616.409 336.502 616.534C336.358 616.659 336.259 616.834 336.221 617.028L334.392 625.869C334.347 626.085 334.348 626.309 334.395 626.525C334.443 626.741 334.535 626.942 334.664 627.114C334.794 627.285 334.958 627.423 335.144 627.517C335.33 627.61 335.534 627.657 335.739 627.653C339.376 627.583 341.139 627.358 345.718 627.358C348.533 627.358 352.137 627.665 356.026 627.665C359.914 627.665 360.407 623.517 358.83 623.151C351.699 621.46 351.162 619.144 348.917 616.922C348.495 616.536 347.958 616.33 347.405 616.343Z" fill="#263238"/>
<path d="M315.496 486.173C315.496 486.173 366.87 502.991 368.14 525.257C370.474 566.267 351.83 601.215 351.83 601.215H337.941C337.941 601.215 343.22 583.889 345.115 546.743C347.492 500.06 265.678 547.83 280.805 486.173H315.496Z" fill="black"/>
<g opacity="0.2">
<path d="M342.136 594.372H351.403L349.004 606.297H339.737L342.136 594.372Z" fill="black"/>
</g>
<path d="M330.339 486.173C330.339 486.173 396.774 490.9 399.403 528.944C402.415 572.673 403.291 601.215 403.291 601.215H389.533C389.533 601.215 382.457 574.399 376.389 535.846C374.559 524.3 351.863 522.314 330.383 520.943C311.871 519.761 297.652 518.579 296.097 496.455L296.338 486.173H330.339Z" fill="#263238"/>
<path d="M406.654 597.244C406.731 597.244 405.767 604.335 405.767 604.335H386.696L386.181 598.06L406.654 597.244Z" fill="#F77F00"/>
<path d="M356.026 597.244C356.102 597.244 354.273 604.335 354.273 604.335H335.213L335.564 598.06L356.026 597.244Z" fill="#F77F00"/>
<path d="M327.348 517.799L318.049 449.641C317.799 447.796 316.942 446.11 315.634 444.89C314.327 443.671 312.657 443 310.929 442.999H256.061C255.027 442.999 254.005 443.24 253.065 443.704C252.124 444.168 251.288 444.846 250.612 445.69C249.937 446.535 249.438 447.527 249.149 448.598C248.861 449.669 248.79 450.795 248.941 451.899L257.923 517.799C257.923 518.558 258.062 519.309 258.331 520.009C258.6 520.71 258.995 521.346 259.492 521.882C259.99 522.417 260.581 522.842 261.23 523.131C261.88 523.42 262.576 523.568 263.279 523.567H363.299C363.299 522.808 363.16 522.058 362.891 521.357C362.622 520.656 362.227 520.02 361.729 519.484C361.232 518.949 360.641 518.524 359.991 518.235C359.342 517.946 358.645 517.798 357.942 517.799H327.348Z" fill="#F77F00"/>
<path opacity="0.5" d="M327.348 517.799L318.049 449.641C317.799 447.796 316.942 446.11 315.634 444.89C314.327 443.671 312.657 443 310.929 442.999H256.061C255.027 442.999 254.005 443.24 253.065 443.704C252.124 444.168 251.288 444.846 250.612 445.69C249.937 446.535 249.438 447.527 249.149 448.598C248.861 449.669 248.79 450.795 248.941 451.899L257.923 517.799C257.923 518.558 258.062 519.309 258.331 520.009C258.6 520.71 258.995 521.346 259.492 521.882C259.99 522.417 260.581 522.842 261.23 523.131C261.88 523.42 262.576 523.568 263.279 523.567H363.299C363.299 522.808 363.16 522.058 362.891 521.357C362.622 520.656 362.227 520.02 361.729 519.484C361.232 518.949 360.641 518.524 359.991 518.235C359.342 517.946 358.645 517.798 357.942 517.799H327.348Z" fill="white"/>
<path opacity="0.3" d="M310.929 442.999H256.061C255.027 442.999 254.005 443.24 253.065 443.704C252.124 444.168 251.288 444.846 250.612 445.69C249.937 446.535 249.438 447.527 249.149 448.598C248.861 449.669 248.79 450.795 248.941 451.899L257.923 517.799C257.923 518.558 258.062 519.309 258.331 520.009C258.6 520.71 258.995 521.346 259.492 521.882C259.99 522.417 260.581 522.842 261.23 523.131C261.88 523.42 262.576 523.568 263.279 523.567H321.455L310.929 442.999Z" fill="#F77F00"/>
<path d="M258.624 628.516H255.524L263.279 523.567H266.39L258.624 628.516Z" fill="#F77F00"/>
<path opacity="0.6" d="M258.624 628.516H255.524L263.279 523.567H266.39L258.624 628.516Z" fill="white"/>
<path d="M311.367 628.516H308.267L316.033 523.567H319.133L311.367 628.516Z" fill="#F77F00"/>
<path opacity="0.6" d="M311.367 628.516H308.267L316.033 523.567H319.133L311.367 628.516Z" fill="white"/>
<path d="M316.143 628.516H313.032L305.276 523.567H308.376L316.143 628.516Z" fill="#F77F00"/>
<path opacity="0.7" d="M316.143 628.516H313.032L305.276 523.567H308.376L316.143 628.516Z" fill="white"/>
<path d="M368.885 628.516H365.785L358.019 523.567H361.119L368.885 628.516Z" fill="#F77F00"/>
<path opacity="0.7" d="M368.885 628.516H365.785L358.019 523.567H361.119L368.885 628.516Z" fill="white"/>
</g>
<defs>
<linearGradient id="paint0_linear_135_7" x1="320.729" y1="45.1588" x2="418.29" y2="738.058" gradientUnits="userSpaceOnUse">
<stop stop-color="#296FF7"/>
<stop offset="1" stop-color="#120850"/>
</linearGradient>
<clipPath id="clip0_135_7">
<rect width="547.692" height="590.931" fill="white" transform="translate(102.992 136.578)"/>
</clipPath>
</defs>
</svg>
