<svg width="64" height="64" viewBox="0 0 64 64" fill="none" xmlns="http://www.w3.org/2000/svg">
<path d="M44.4452 21.8999C44.1709 21.1895 43.7509 20.5444 43.2121 20.0062C42.6733 19.468 42.0278 19.0487 41.3171 18.7751C40.3385 18.4127 39.3049 18.2211 38.2615 18.2088C36.5262 18.1297 36.006 18.11 31.6102 18.11C27.2144 18.11 26.6941 18.1297 24.9589 18.2088C23.9143 18.2207 22.8795 18.4123 21.8999 18.7751C21.1895 19.0494 20.5444 19.4695 20.0062 20.0082C19.468 20.547 19.0487 21.1925 18.7751 21.9032C18.4127 22.8818 18.2211 23.9154 18.2088 24.9588C18.1298 26.6941 18.11 27.2144 18.11 31.6102C18.11 36.0059 18.1298 36.5262 18.2088 38.2615C18.2207 39.306 18.4123 40.3408 18.7751 41.3204C19.0494 42.0308 19.4695 42.6759 20.0082 43.2141C20.547 43.7523 21.1925 44.1716 21.9032 44.4452C22.8818 44.8076 23.9154 44.9992 24.9589 45.0115C26.6941 45.0906 27.2144 45.107 31.6102 45.107C36.006 45.107 36.5262 45.0906 38.2615 45.0082C39.3059 44.9973 40.3406 44.8069 41.3204 44.4452C42.0308 44.1709 42.6759 43.7508 43.2141 43.2121C43.7523 42.6733 44.1717 42.0278 44.4452 41.3171C44.8077 40.3385 44.9992 39.3049 45.0116 38.2615C45.0906 36.5262 45.107 36.0059 45.107 31.6102C45.107 27.2144 45.0906 26.6941 45.0083 24.9588C44.9974 23.9145 44.8069 22.8797 44.4452 21.8999ZM31.6102 40.0659C29.9378 40.0659 28.303 39.57 26.9124 38.6408C25.5219 37.7117 24.4381 36.3911 23.7981 34.846C23.1581 33.3009 22.9907 31.6008 23.3169 29.9605C23.6432 28.3203 24.4485 26.8136 25.6311 25.6311C26.8136 24.4485 28.3203 23.6432 29.9605 23.3169C31.6008 22.9906 33.3009 23.1581 34.846 23.7981C36.3911 24.4381 37.7117 25.5219 38.6408 26.9124C39.57 28.3029 40.0659 29.9378 40.0659 31.6102C40.0659 33.8527 39.175 36.0035 37.5893 37.5892C36.0035 39.175 33.8528 40.0659 31.6102 40.0659ZM40.3984 24.7975C40.0077 24.7975 39.6257 24.6816 39.3008 24.4646C38.976 24.2475 38.7227 23.9389 38.5732 23.5779C38.4237 23.2169 38.3845 22.8197 38.4608 22.4364C38.537 22.0532 38.7252 21.7012 39.0015 21.4249C39.2778 21.1486 39.6298 20.9604 40.013 20.8842C40.3963 20.808 40.7935 20.8471 41.1545 20.9966C41.5155 21.1462 41.824 21.3994 42.0411 21.7243C42.2582 22.0492 42.3741 22.4311 42.3741 22.8219C42.3741 23.3458 42.1659 23.8484 41.7954 24.2189C41.4249 24.5894 40.9224 24.7975 40.3984 24.7975ZM37.0991 31.6102C37.0991 32.6958 36.7772 33.757 36.1741 34.6597C35.5709 35.5623 34.7137 36.2659 33.7107 36.6813C32.7077 37.0967 31.6041 37.2054 30.5393 36.9937C29.4746 36.7819 28.4965 36.2591 27.7289 35.4914C26.9612 34.7238 26.4385 33.7458 26.2267 32.681C26.0149 31.6162 26.1236 30.5126 26.539 29.5096C26.9545 28.5066 27.658 27.6494 28.5607 27.0462C29.4633 26.4431 30.5246 26.1212 31.6102 26.1212C33.0659 26.1212 34.4621 26.6995 35.4915 27.7289C36.5208 28.7582 37.0991 30.1544 37.0991 31.6102ZM31.6102 0C25.3583 0 19.2468 1.8539 14.0485 5.32727C8.85024 8.80064 4.79869 13.7375 2.40619 19.5135C0.0136961 25.2895 -0.61229 31.6452 0.607394 37.777C1.82708 43.9088 4.83765 49.5411 9.25841 53.9619C13.6792 58.3827 19.3116 61.3932 25.4433 62.6129C31.5751 63.8326 37.9308 63.2066 43.7068 60.8141C49.4828 58.4216 54.4197 54.3701 57.893 49.1718C61.3664 43.9735 63.2203 37.862 63.2203 31.6102C63.2203 23.2266 59.89 15.1865 53.9619 9.2584C48.0339 3.33035 39.9937 0 31.6102 0ZM47.975 38.3965C47.9471 39.7627 47.6877 41.1143 47.2078 42.3938C46.7849 43.4873 46.1383 44.4803 45.3093 45.3093C44.4803 46.1383 43.4873 46.7849 42.3938 47.2078C41.1154 47.6873 39.7649 47.9467 38.3998 47.975C36.6414 48.054 36.0817 48.0738 31.6102 48.0738C27.1386 48.0738 26.5789 48.054 24.8206 47.975C23.4554 47.9467 22.1049 47.6873 20.8265 47.2078C19.7331 46.7849 18.74 46.1383 17.911 45.3093C17.082 44.4803 16.4354 43.4873 16.0125 42.3938C15.533 41.1154 15.2736 39.7649 15.2453 38.3997C15.1663 36.6414 15.1465 36.0817 15.1465 31.6102C15.1465 27.1386 15.1663 26.5789 15.2453 24.8206C15.2725 23.4556 15.5308 22.1051 16.0092 20.8265C16.4321 19.7321 17.0791 18.7382 17.9087 17.9086C18.7382 17.0791 19.7321 16.4321 20.8265 16.0092C22.1051 15.5308 23.4556 15.2725 24.8206 15.2453C26.5789 15.1663 27.1386 15.1465 31.6102 15.1465C36.0817 15.1465 36.6414 15.1663 38.3998 15.2453C39.7647 15.2725 41.1152 15.5308 42.3938 16.0092C43.4876 16.4325 44.4808 17.0796 45.3098 17.9092C46.1388 18.7388 46.7853 19.7324 47.2078 20.8265C47.6874 22.1049 47.9468 23.4554 47.975 24.8206C48.054 26.5789 48.0738 27.1386 48.0738 31.6102C48.0738 36.0817 48.054 36.6381 47.975 38.3965Z" fill="#737373"/>
</svg>
