<svg width="65" height="65" viewBox="0 0 65 65" fill="none" xmlns="http://www.w3.org/2000/svg">
<path d="M32.0108 0C36.4525 0 40.6134 0.842391 44.4935 2.52717C48.3736 4.21195 51.7687 6.49662 54.6788 9.38117C57.5889 12.2657 59.8863 15.648 61.5711 19.5281C63.2559 23.4083 64.0983 27.5691 64.0983 32.0108C64.0983 36.4525 63.2559 40.6134 61.5711 44.4935C59.8863 48.3736 57.5889 51.7687 54.6788 54.6788C51.7687 57.5889 48.3736 59.8863 44.4935 61.5711C40.6134 63.2559 36.4525 64.0983 32.0108 64.0983C27.5691 64.0983 23.4083 63.2559 19.5281 61.5711C15.648 59.8863 12.2657 57.5889 9.38117 54.6788C6.49662 51.7687 4.21195 48.3736 2.52717 44.4935C0.842391 40.6134 0 36.4525 0 32.0108C0 27.5691 0.842391 23.4083 2.52717 19.5281C4.21195 15.648 6.49662 12.2657 9.38117 9.38117C12.2657 6.49662 15.648 4.21195 19.5281 2.52717C23.4083 0.842391 27.5691 0 32.0108 0ZM22.0553 24.0464H14.0143V50.084H22.0553V24.0464ZM17.9965 21.9787C19.1197 21.9787 20.077 21.5958 20.8683 20.83C21.6597 20.0642 22.0553 19.1197 22.0553 17.9965C22.0553 16.8733 21.6597 15.9288 20.8683 15.163C20.077 14.3972 19.1197 14.0143 17.9965 14.0143C16.8733 14.0143 15.9288 14.3972 15.163 15.163C14.3972 15.9288 14.0143 16.8733 14.0143 17.9965C14.0143 19.1197 14.3972 20.0642 15.163 20.83C15.9288 21.5958 16.8733 21.9787 17.9965 21.9787ZM50.084 34.9975C50.084 33.1596 49.5734 31.3599 48.5523 29.5985C47.5313 27.8372 46.2039 26.497 44.5701 25.578C43.0896 24.7612 41.3665 24.3272 39.4009 24.2762C37.4353 24.2251 35.6357 24.557 34.002 25.2717V24.0464H26.0375V50.084H34.002V34.1551L37.3715 32.5469C37.7799 32.3427 38.3288 32.2406 39.018 32.2406C39.7072 32.2406 40.2561 32.3682 40.6645 32.6235C40.9708 32.7767 41.2771 33.1085 41.5835 33.619C41.8898 34.1296 42.043 34.5891 42.043 34.9975V50.084H50.084V34.9975Z" fill="#040650"/>
</svg>
