<svg width="114" height="48" viewBox="0 0 114 48" fill="none" xmlns="http://www.w3.org/2000/svg">
<path d="M9.184 27.664H19.936V34H0.976V0.303999H9.184V27.664ZM36.043 34.384C33.419 34.384 31.051 33.824 28.939 32.704C26.859 31.584 25.211 29.984 23.995 27.904C22.811 25.824 22.219 23.392 22.219 20.608C22.219 17.856 22.827 15.44 24.043 13.36C25.259 11.248 26.923 9.632 29.035 8.512C31.147 7.392 33.515 6.832 36.139 6.832C38.763 6.832 41.131 7.392 43.243 8.512C45.355 9.632 47.019 11.248 48.235 13.36C49.451 15.44 50.059 17.856 50.059 20.608C50.059 23.36 49.435 25.792 48.187 27.904C46.971 29.984 45.291 31.584 43.147 32.704C41.035 33.824 38.667 34.384 36.043 34.384ZM36.043 27.28C37.611 27.28 38.939 26.704 40.027 25.552C41.147 24.4 41.707 22.752 41.707 20.608C41.707 18.464 41.163 16.816 40.075 15.664C39.019 14.512 37.707 13.936 36.139 13.936C34.539 13.936 33.211 14.512 32.155 15.664C31.099 16.784 30.571 18.432 30.571 20.608C30.571 22.752 31.083 24.4 32.107 25.552C33.163 26.704 34.475 27.28 36.043 27.28ZM64.5895 6.832C66.4775 6.832 68.1255 7.216 69.5335 7.984C70.9735 8.752 72.0775 9.76 72.8455 11.008V7.216H81.0535V33.952C81.0535 36.416 80.5575 38.64 79.5655 40.624C78.6055 42.64 77.1175 44.24 75.1015 45.424C73.1175 46.608 70.6375 47.2 67.6615 47.2C63.6935 47.2 60.4775 46.256 58.0135 44.368C55.5495 42.512 54.1415 39.984 53.7895 36.784H61.9015C62.1575 37.808 62.7655 38.608 63.7255 39.184C64.6855 39.792 65.8695 40.096 67.2775 40.096C68.9735 40.096 70.3175 39.6 71.3095 38.608C72.3335 37.648 72.8455 36.096 72.8455 33.952V30.16C72.0455 31.408 70.9415 32.432 69.5335 33.232C68.1255 34 66.4775 34.384 64.5895 34.384C62.3815 34.384 60.3815 33.824 58.5895 32.704C56.7975 31.552 55.3735 29.936 54.3175 27.856C53.2935 25.744 52.7815 23.312 52.7815 20.56C52.7815 17.808 53.2935 15.392 54.3175 13.312C55.3735 11.232 56.7975 9.632 58.5895 8.512C60.3815 7.392 62.3815 6.832 64.5895 6.832ZM72.8455 20.608C72.8455 18.56 72.2695 16.944 71.1175 15.76C69.9975 14.576 68.6215 13.984 66.9895 13.984C65.3575 13.984 63.9655 14.576 62.8135 15.76C61.6935 16.912 61.1335 18.512 61.1335 20.56C61.1335 22.608 61.6935 24.24 62.8135 25.456C63.9655 26.64 65.3575 27.232 66.9895 27.232C68.6215 27.232 69.9975 26.64 71.1175 25.456C72.2695 24.272 72.8455 22.656 72.8455 20.608ZM99.1836 34.384C96.5596 34.384 94.1916 33.824 92.0796 32.704C89.9996 31.584 88.3516 29.984 87.1356 27.904C85.9516 25.824 85.3596 23.392 85.3596 20.608C85.3596 17.856 85.9676 15.44 87.1836 13.36C88.3996 11.248 90.0636 9.632 92.1756 8.512C94.2876 7.392 96.6556 6.832 99.2796 6.832C101.904 6.832 104.272 7.392 106.384 8.512C108.496 9.632 110.16 11.248 111.376 13.36C112.592 15.44 113.2 17.856 113.2 20.608C113.2 23.36 112.576 25.792 111.328 27.904C110.112 29.984 108.432 31.584 106.288 32.704C104.176 33.824 101.808 34.384 99.1836 34.384ZM99.1836 27.28C100.752 27.28 102.08 26.704 103.168 25.552C104.288 24.4 104.848 22.752 104.848 20.608C104.848 18.464 104.304 16.816 103.216 15.664C102.16 14.512 100.848 13.936 99.2796 13.936C97.6796 13.936 96.3516 14.512 95.2956 15.664C94.2396 16.784 93.7116 18.432 93.7116 20.608C93.7116 22.752 94.2236 24.4 95.2476 25.552C96.3036 26.704 97.6156 27.28 99.1836 27.28Z" fill="url(#paint0_linear_3_1373)"/>
<defs>
<linearGradient id="paint0_linear_3_1373" x1="-2" y1="-19" x2="115" y2="43.55" gradientUnits="userSpaceOnUse">
<stop stop-color="#8D13D8"/>
<stop offset="1" stop-color="#573DF5" stop-opacity="0.98"/>
</linearGradient>
</defs>
</svg>
