<svg width="116" height="181" viewBox="0 0 116 181" fill="none" xmlns="http://www.w3.org/2000/svg">
<mask id="path-1-inside-1_106_13" fill="white">
<path d="M78.2659 17.6827C60.9825 5.11822 39.789 -0.879594 18.4846 0.7644C-2.8199 2.40839 -22.8423 11.5867 -37.9934 26.6541C-53.1446 41.7215 -62.4338 61.6927 -64.1959 82.9877C-65.958 104.283 -60.0778 125.509 -47.6094 142.862C-35.1409 160.215 -16.8995 172.559 3.84498 177.683C24.5895 182.806 46.4806 180.374 65.5941 170.821C84.7077 161.268 99.7939 145.22 108.149 125.553C116.503 105.886 117.58 83.8868 111.186 63.4982L25.4016 90.4017L78.2659 17.6827Z"/>
</mask>
<path d="M78.2659 17.6827C60.9825 5.11822 39.789 -0.879594 18.4846 0.7644C-2.8199 2.40839 -22.8423 11.5867 -37.9934 26.6541C-53.1446 41.7215 -62.4338 61.6927 -64.1959 82.9877C-65.958 104.283 -60.0778 125.509 -47.6094 142.862C-35.1409 160.215 -16.8995 172.559 3.84498 177.683C24.5895 182.806 46.4806 180.374 65.5941 170.821C84.7077 161.268 99.7939 145.22 108.149 125.553C116.503 105.886 117.58 83.8868 111.186 63.4982L25.4016 90.4017L78.2659 17.6827Z" stroke="#C7C7C7" stroke-opacity="0.25" stroke-width="44" mask="url(#path-1-inside-1_106_13)"/>
</svg>
