<svg width="100" height="100" viewBox="0 0 100 100" fill="none" xmlns="http://www.w3.org/2000/svg">
<circle cx="50" cy="50" r="50" fill="#FEE2B9"/>
<path d="M50 46.5C56.3125 46.5 61.4286 41.4639 61.4286 35.25C61.4286 29.0361 56.3125 24 50 24C43.6875 24 38.5714 29.0361 38.5714 35.25C38.5714 41.4639 43.6875 46.5 50 46.5ZM58.5536 49.3652L54.2857 66.1875L51.4286 54.2344L54.2857 49.3125H45.7143L48.5714 54.2344L45.7143 66.1875L41.4464 49.3652C35.0804 49.6641 30 54.7881 30 61.125V64.7812C30 67.1104 31.9196 69 34.2857 69H65.7143C68.0804 69 70 67.1104 70 64.7812V61.125C70 54.7881 64.9196 49.6641 58.5536 49.3652Z" fill="white"/>
</svg>
