<svg width="65" height="65" viewBox="0 0 65 65" fill="none" xmlns="http://www.w3.org/2000/svg">
<path d="M32.0108 0C36.4525 0 40.6134 0.842391 44.4935 2.52717C48.3736 4.21195 51.7687 6.49662 54.6788 9.38117C57.5889 12.2657 59.8863 15.648 61.5711 19.5281C63.2559 23.4083 64.0983 27.5691 64.0983 32.0108C64.0983 36.4525 63.2559 40.6134 61.5711 44.4935C59.8863 48.3736 57.5889 51.7687 54.6788 54.6788C51.7687 57.5889 48.3736 59.8863 44.4935 61.5711C40.6134 63.2559 36.4525 64.0983 32.0108 64.0983C27.5691 64.0983 23.4083 63.2559 19.5281 61.5711C15.648 59.8863 12.2657 57.5889 9.38117 54.6788C6.49662 51.7687 4.21195 48.3736 2.52717 44.4935C0.842391 40.6134 0 36.4525 0 32.0108C0 27.5691 0.842391 23.4083 2.52717 19.5281C4.21195 15.648 6.49662 12.2657 9.38117 9.38117C12.2657 6.49662 15.648 4.21195 19.5281 2.52717C23.4083 0.842391 27.5691 0 32.0108 0ZM47.9397 25.1186C49.4203 23.9954 50.7221 22.6424 51.8453 21.0598C51.1306 21.3661 50.403 21.6214 49.6628 21.8256C48.9225 22.0298 48.1439 22.183 47.327 22.2851C48.1439 21.7745 48.8587 21.1491 49.4713 20.4088C50.084 19.6685 50.5179 18.8644 50.7732 17.9965C50.0074 18.405 49.216 18.7751 48.3992 19.107C47.5823 19.4388 46.7399 19.6813 45.872 19.8345C45.1572 19.1197 44.3149 18.5326 43.3448 18.0731C42.3748 17.6136 41.3027 17.3839 40.1284 17.3839C39.0563 17.3839 38.048 17.5881 37.1035 17.9965C36.159 18.405 35.3421 18.9666 34.6529 19.6813C33.9637 20.3961 33.4148 21.2257 33.0064 22.1702C32.598 23.1147 32.3937 24.123 32.3937 25.1951C32.3937 25.5015 32.4065 25.8078 32.432 26.1141C32.4576 26.4204 32.4959 26.7012 32.5469 26.9565C29.3305 26.8033 26.3439 26.012 23.5869 24.5825C20.83 23.153 18.4815 21.2385 16.5415 18.8389C15.8267 20.0132 15.4694 21.315 15.4694 22.7445C15.4694 24.072 15.7884 25.31 16.4266 26.4587C17.0648 27.6074 17.8944 28.5392 18.9155 29.2539C17.5881 29.1518 16.4139 28.82 15.3928 28.2584V28.335C15.3928 30.275 15.9927 31.947 17.1924 33.351C18.3922 34.755 19.8855 35.6357 21.6724 35.9931C21.315 36.0952 20.9704 36.1717 20.6386 36.2228C20.3067 36.2739 19.9621 36.2994 19.6047 36.2994C19.3495 36.2994 19.107 36.2866 18.8772 36.2611C18.6475 36.2356 18.405 36.1973 18.1497 36.1462C18.6602 37.6778 19.5664 38.9542 20.8683 39.9753C22.1702 40.9963 23.689 41.5069 25.4249 41.5069C24.0975 42.579 22.6042 43.4086 20.9449 43.9958C19.2856 44.5829 17.5626 44.8764 15.7757 44.8764C15.4183 44.8764 15.0865 44.8637 14.7801 44.8382C14.4738 44.8126 14.1675 44.7743 13.8612 44.7233C15.597 45.8465 17.4732 46.7144 19.4899 47.327C21.5065 47.9397 23.6125 48.246 25.8078 48.246C29.3816 48.246 32.5469 47.5695 35.3038 46.2166C38.0607 44.8637 40.3709 43.1278 42.2344 41.0091C44.0979 38.8904 45.5146 36.5164 46.4846 33.8871C47.4547 31.2578 47.9397 28.6668 47.9397 26.1141V25.1186Z" fill="#040650"/>
</svg>
